solid OpenSCAD_Model
  facet normal 0 -1 0
    outer loop
      vertex -77.5 -10 0
      vertex -54.138 -10 0
      vertex -54.138 -10 4
    endloop
  endfacet
  facet normal 0 -1 0
    outer loop
      vertex -77.5 -10 4
      vertex -77.5 -10 0
      vertex -54.138 -10 4
    endloop
  endfacet
  facet normal 0.624147 -0.781307 0
    outer loop
      vertex -54.138 -10 0
      vertex -53.79 -9.722 0
      vertex -53.79 -9.722 4
    endloop
  endfacet
  facet normal 0.624147 -0.781307 0
    outer loop
      vertex -54.138 -10 4
      vertex -54.138 -10 0
      vertex -53.79 -9.722 4
    endloop
  endfacet
  facet normal 0 0 -1
    outer loop
      vertex -77.5 10 0
      vertex -54.138 10 0
      vertex -77.5 -10 0
    endloop
  endfacet
  facet normal 0 0 -1
    outer loop
      vertex -77.5 -10 0
      vertex -54.138 10 0
      vertex -53.79 9.722 0
    endloop
  endfacet
  facet normal 0 0 -1
    outer loop
      vertex -77.5 -10 0
      vertex -53.79 9.722 0
      vertex -53.225 9.297 0
    endloop
  endfacet
  facet normal 0 0 -1
    outer loop
      vertex -53.225 9.297 0
      vertex -52.647 8.891 0
      vertex -77.5 -10 0
    endloop
  endfacet
  facet normal 0 0 -1
    outer loop
      vertex -52.647 8.891 0
      vertex -52.056 8.503 0
      vertex -77.5 -10 0
    endloop
  endfacet
  facet normal 0 0 -1
    outer loop
      vertex -52.056 8.503 0
      vertex -51.453 8.133 0
      vertex -77.5 -10 0
    endloop
  endfacet
  facet normal 0 0 -1
    outer loop
      vertex -51.453 8.133 0
      vertex -50.839 7.783 0
      vertex -77.5 -10 0
    endloop
  endfacet
  facet normal 0 0 -1
    outer loop
      vertex -50.839 7.783 0
      vertex -50.215 7.452 0
      vertex -77.5 -10 0
    endloop
  endfacet
  facet normal 0 0 -1
    outer loop
      vertex -50.215 7.452 0
      vertex -49.58 7.141 0
      vertex -77.5 -10 0
    endloop
  endfacet
  facet normal 0 0 -1
    outer loop
      vertex -49.58 7.141 0
      vertex -48.936 6.851 0
      vertex -77.5 -10 0
    endloop
  endfacet
  facet normal 0 0 -1
    outer loop
      vertex -48.936 6.851 0
      vertex -48.283 6.58 0
      vertex -77.5 -10 0
    endloop
  endfacet
  facet normal 0 0 -1
    outer loop
      vertex -48.283 6.58 0
      vertex -47.622 6.33 0
      vertex -77.5 -10 0
    endloop
  endfacet
  facet normal 0 0 -1
    outer loop
      vertex -47.622 6.33 0
      vertex -46.953 6.101 0
      vertex -77.5 -10 0
    endloop
  endfacet
  facet normal 0 0 -1
    outer loop
      vertex -46.953 6.101 0
      vertex -46.277 5.893 0
      vertex -77.5 -10 0
    endloop
  endfacet
  facet normal 0 0 -1
    outer loop
      vertex -46.277 5.893 0
      vertex -45.596 5.707 0
      vertex -77.5 -10 0
    endloop
  endfacet
  facet normal 0 0 -1
    outer loop
      vertex -45.596 5.707 0
      vertex -44.908 5.542 0
      vertex -77.5 -10 0
    endloop
  endfacet
  facet normal 0 0 -1
    outer loop
      vertex -44.908 5.542 0
      vertex -44.216 5.399 0
      vertex -77.5 -10 0
    endloop
  endfacet
  facet normal 0 0 -1
    outer loop
      vertex -44.216 5.399 0
      vertex -43.52 5.277 0
      vertex -77.5 -10 0
    endloop
  endfacet
  facet normal 0 0 -1
    outer loop
      vertex -43.52 5.277 0
      vertex -42.82 5.177 0
      vertex -77.5 -10 0
    endloop
  endfacet
  facet normal 0 0 -1
    outer loop
      vertex -42.82 5.177 0
      vertex -42.117 5.1 0
      vertex -77.5 -10 0
    endloop
  endfacet
  facet normal 0 0 -1
    outer loop
      vertex -42.117 5.1 0
      vertex -41.413 5.044 0
      vertex -77.5 -10 0
    endloop
  endfacet
  facet normal 0 0 -1
    outer loop
      vertex -41.413 5.044 0
      vertex -40.707 5.011 0
      vertex -77.5 -10 0
    endloop
  endfacet
  facet normal 0 0 -1
    outer loop
      vertex -40.707 5.011 0
      vertex -40 5 0
      vertex -77.5 -10 0
    endloop
  endfacet
  facet normal 0 0 -1
    outer loop
      vertex 43.52 5.277 0
      vertex 77.5 10 0
      vertex 42.82 5.177 0
    endloop
  endfacet
  facet normal 0 0 -1
    outer loop
      vertex 44.216 5.399 0
      vertex 77.5 10 0
      vertex 43.52 5.277 0
    endloop
  endfacet
  facet normal 0 0 -1
    outer loop
      vertex 44.908 5.542 0
      vertex 77.5 10 0
      vertex 44.216 5.399 0
    endloop
  endfacet
  facet normal 0 0 -1
    outer loop
      vertex 45.596 5.707 0
      vertex 77.5 10 0
      vertex 44.908 5.542 0
    endloop
  endfacet
  facet normal 0 0 -1
    outer loop
      vertex 46.277 5.893 0
      vertex 77.5 10 0
      vertex 45.596 5.707 0
    endloop
  endfacet
  facet normal 0 0 -1
    outer loop
      vertex 46.953 6.101 0
      vertex 77.5 10 0
      vertex 46.277 5.893 0
    endloop
  endfacet
  facet normal 0 0 -1
    outer loop
      vertex 47.622 6.33 0
      vertex 77.5 10 0
      vertex 46.953 6.101 0
    endloop
  endfacet
  facet normal 0 0 -1
    outer loop
      vertex 48.283 6.58 0
      vertex 77.5 10 0
      vertex 47.622 6.33 0
    endloop
  endfacet
  facet normal 0 0 -1
    outer loop
      vertex 48.936 6.851 0
      vertex 77.5 10 0
      vertex 48.283 6.58 0
    endloop
  endfacet
  facet normal 0 0 -1
    outer loop
      vertex 49.58 7.141 0
      vertex 77.5 10 0
      vertex 48.936 6.851 0
    endloop
  endfacet
  facet normal 0 0 -1
    outer loop
      vertex 50.215 7.452 0
      vertex 77.5 10 0
      vertex 49.58 7.141 0
    endloop
  endfacet
  facet normal 0 0 -1
    outer loop
      vertex 50.839 7.783 0
      vertex 77.5 10 0
      vertex 50.215 7.452 0
    endloop
  endfacet
  facet normal 0 0 -1
    outer loop
      vertex 51.453 8.133 0
      vertex 77.5 10 0
      vertex 50.839 7.783 0
    endloop
  endfacet
  facet normal 0 0 -1
    outer loop
      vertex 52.056 8.503 0
      vertex 77.5 10 0
      vertex 51.453 8.133 0
    endloop
  endfacet
  facet normal 0 0 -1
    outer loop
      vertex 52.647 8.891 0
      vertex 77.5 10 0
      vertex 52.056 8.503 0
    endloop
  endfacet
  facet normal 0 0 -1
    outer loop
      vertex 53.225 9.297 0
      vertex 77.5 10 0
      vertex 52.647 8.891 0
    endloop
  endfacet
  facet normal 0 0 -1
    outer loop
      vertex 53.79 9.722 0
      vertex 54.138 10 0
      vertex 77.5 10 0
    endloop
  endfacet
  facet normal 0 0 -1
    outer loop
      vertex 53.79 9.722 0
      vertex 77.5 10 0
      vertex 53.225 9.297 0
    endloop
  endfacet
  facet normal 0 0 -1
    outer loop
      vertex 42.82 5.177 0
      vertex 77.5 10 0
      vertex 77.5 -10 0
    endloop
  endfacet
  facet normal 0 0 -1
    outer loop
      vertex 42.82 5.177 0
      vertex 77.5 -10 0
      vertex 54.138 -10 0
    endloop
  endfacet
  facet normal 0 0 -1
    outer loop
      vertex 42.82 5.177 0
      vertex 54.138 -10 0
      vertex 53.79 -9.722 0
    endloop
  endfacet
  facet normal 0 0 -1
    outer loop
      vertex 42.82 5.177 0
      vertex 53.79 -9.722 0
      vertex 53.225 -9.297 0
    endloop
  endfacet
  facet normal 0 0 -1
    outer loop
      vertex 42.82 5.177 0
      vertex 53.225 -9.297 0
      vertex 52.647 -8.891 0
    endloop
  endfacet
  facet normal 0 0 -1
    outer loop
      vertex 42.82 5.177 0
      vertex 52.647 -8.891 0
      vertex 52.056 -8.503 0
    endloop
  endfacet
  facet normal 0 0 -1
    outer loop
      vertex 42.82 5.177 0
      vertex 52.056 -8.503 0
      vertex 51.453 -8.133 0
    endloop
  endfacet
  facet normal 0 0 -1
    outer loop
      vertex 42.82 5.177 0
      vertex 51.453 -8.133 0
      vertex 50.839 -7.783 0
    endloop
  endfacet
  facet normal 0 0 -1
    outer loop
      vertex 42.82 5.177 0
      vertex 50.839 -7.783 0
      vertex 50.215 -7.452 0
    endloop
  endfacet
  facet normal 0 0 -1
    outer loop
      vertex 42.82 5.177 0
      vertex 50.215 -7.452 0
      vertex 49.58 -7.141 0
    endloop
  endfacet
  facet normal 0 0 -1
    outer loop
      vertex 42.82 5.177 0
      vertex 49.58 -7.141 0
      vertex 48.936 -6.851 0
    endloop
  endfacet
  facet normal 0 0 -1
    outer loop
      vertex 42.82 5.177 0
      vertex 48.936 -6.851 0
      vertex 48.283 -6.58 0
    endloop
  endfacet
  facet normal 0 0 -1
    outer loop
      vertex 42.82 5.177 0
      vertex 48.283 -6.58 0
      vertex 47.622 -6.33 0
    endloop
  endfacet
  facet normal 0 0 -1
    outer loop
      vertex 42.82 5.177 0
      vertex 47.622 -6.33 0
      vertex 46.953 -6.101 0
    endloop
  endfacet
  facet normal 0 0 -1
    outer loop
      vertex 42.82 5.177 0
      vertex 46.953 -6.101 0
      vertex 46.277 -5.893 0
    endloop
  endfacet
  facet normal 0 0 -1
    outer loop
      vertex 42.82 5.177 0
      vertex 46.277 -5.893 0
      vertex 45.596 -5.707 0
    endloop
  endfacet
  facet normal 0 0 -1
    outer loop
      vertex 42.82 5.177 0
      vertex 45.596 -5.707 0
      vertex 44.908 -5.542 0
    endloop
  endfacet
  facet normal 0 0 -1
    outer loop
      vertex 42.82 5.177 0
      vertex 44.908 -5.542 0
      vertex 44.216 -5.399 0
    endloop
  endfacet
  facet normal 0 0 -1
    outer loop
      vertex 42.82 5.177 0
      vertex 44.216 -5.399 0
      vertex 43.52 -5.277 0
    endloop
  endfacet
  facet normal 0 0 -1
    outer loop
      vertex 42.82 5.177 0
      vertex 43.52 -5.277 0
      vertex 42.82 -5.177 0
    endloop
  endfacet
  facet normal 0 0 -1
    outer loop
      vertex 42.82 5.177 0
      vertex 42.82 -5.177 0
      vertex 42.117 -5.1 0
    endloop
  endfacet
  facet normal 0 0 -1
    outer loop
      vertex 42.82 5.177 0
      vertex 42.117 -5.1 0
      vertex 41.413 -5.044 0
    endloop
  endfacet
  facet normal 0 0 -1
    outer loop
      vertex 42.82 5.177 0
      vertex 41.413 -5.044 0
      vertex 40.707 -5.011 0
    endloop
  endfacet
  facet normal 0 0 -1
    outer loop
      vertex 42.82 5.177 0
      vertex 40.707 -5.011 0
      vertex 40 -5 0
    endloop
  endfacet
  facet normal 0 0 -1
    outer loop
      vertex -40 5 0
      vertex 40 5 0
      vertex -40 -5 0
    endloop
  endfacet
  facet normal 0 0 -1
    outer loop
      vertex -40 5 0
      vertex -40 -5 0
      vertex -40.707 -5.011 0
    endloop
  endfacet
  facet normal 0 0 -1
    outer loop
      vertex -40 5 0
      vertex -40.707 -5.011 0
      vertex -41.413 -5.044 0
    endloop
  endfacet
  facet normal 0 0 -1
    outer loop
      vertex -40 5 0
      vertex -41.413 -5.044 0
      vertex -42.117 -5.1 0
    endloop
  endfacet
  facet normal 0 0 -1
    outer loop
      vertex -40 5 0
      vertex -42.117 -5.1 0
      vertex -42.82 -5.177 0
    endloop
  endfacet
  facet normal 0 0 -1
    outer loop
      vertex -40 5 0
      vertex -42.82 -5.177 0
      vertex -77.5 -10 0
    endloop
  endfacet
  facet normal 0 0 -1
    outer loop
      vertex -42.82 -5.177 0
      vertex -43.52 -5.277 0
      vertex -77.5 -10 0
    endloop
  endfacet
  facet normal 0 0 -1
    outer loop
      vertex -44.908 -5.542 0
      vertex -77.5 -10 0
      vertex -44.216 -5.399 0
    endloop
  endfacet
  facet normal 0 0 -1
    outer loop
      vertex -45.596 -5.707 0
      vertex -77.5 -10 0
      vertex -44.908 -5.542 0
    endloop
  endfacet
  facet normal 0 0 -1
    outer loop
      vertex -46.277 -5.893 0
      vertex -77.5 -10 0
      vertex -45.596 -5.707 0
    endloop
  endfacet
  facet normal 0 0 -1
    outer loop
      vertex -44.216 -5.399 0
      vertex -77.5 -10 0
      vertex -43.52 -5.277 0
    endloop
  endfacet
  facet normal 0 0 -1
    outer loop
      vertex -53.225 -9.297 0
      vertex -77.5 -10 0
      vertex -52.647 -8.891 0
    endloop
  endfacet
  facet normal 0 0 -1
    outer loop
      vertex -47.622 -6.33 0
      vertex -48.283 -6.58 0
      vertex -77.5 -10 0
    endloop
  endfacet
  facet normal 0 0 -1
    outer loop
      vertex -48.283 -6.58 0
      vertex -48.936 -6.851 0
      vertex -77.5 -10 0
    endloop
  endfacet
  facet normal 0 0 -1
    outer loop
      vertex -48.936 -6.851 0
      vertex -49.58 -7.141 0
      vertex -77.5 -10 0
    endloop
  endfacet
  facet normal 0 0 -1
    outer loop
      vertex -49.58 -7.141 0
      vertex -50.215 -7.452 0
      vertex -77.5 -10 0
    endloop
  endfacet
  facet normal 0 0 -1
    outer loop
      vertex -50.215 -7.452 0
      vertex -50.839 -7.783 0
      vertex -77.5 -10 0
    endloop
  endfacet
  facet normal 0 0 -1
    outer loop
      vertex -50.839 -7.783 0
      vertex -51.453 -8.133 0
      vertex -77.5 -10 0
    endloop
  endfacet
  facet normal 0 0 -1
    outer loop
      vertex -51.453 -8.133 0
      vertex -52.056 -8.503 0
      vertex -77.5 -10 0
    endloop
  endfacet
  facet normal 0 0 -1
    outer loop
      vertex -52.056 -8.503 0
      vertex -52.647 -8.891 0
      vertex -77.5 -10 0
    endloop
  endfacet
  facet normal 0 0 -1
    outer loop
      vertex -53.79 -9.722 0
      vertex -77.5 -10 0
      vertex -53.225 -9.297 0
    endloop
  endfacet
  facet normal 0 0 -1
    outer loop
      vertex -54.138 -10 0
      vertex -77.5 -10 0
      vertex -53.79 -9.722 0
    endloop
  endfacet
  facet normal 0 0 -1
    outer loop
      vertex -40 -5 0
      vertex 40 5 0
      vertex 40.707 5.011 0
    endloop
  endfacet
  facet normal 0 0 -1
    outer loop
      vertex -40 -5 0
      vertex 40.707 5.011 0
      vertex 41.413 5.044 0
    endloop
  endfacet
  facet normal 0 0 -1
    outer loop
      vertex -40 -5 0
      vertex 41.413 5.044 0
      vertex 42.117 5.1 0
    endloop
  endfacet
  facet normal 0 0 -1
    outer loop
      vertex -40 -5 0
      vertex 42.117 5.1 0
      vertex 42.82 5.177 0
    endloop
  endfacet
  facet normal 0 0 -1
    outer loop
      vertex -40 -5 0
      vertex 42.82 5.177 0
      vertex 40 -5 0
    endloop
  endfacet
  facet normal 0 0 -1
    outer loop
      vertex -47.622 -6.33 0
      vertex -77.5 -10 0
      vertex -46.953 -6.101 0
    endloop
  endfacet
  facet normal 0 0 -1
    outer loop
      vertex -46.953 -6.101 0
      vertex -77.5 -10 0
      vertex -46.277 -5.893 0
    endloop
  endfacet
  facet normal -1 0 0
    outer loop
      vertex -77.5 -10 4
      vertex -77.5 10 4
      vertex -77.5 -10 0
    endloop
  endfacet
  facet normal -1 0 0
    outer loop
      vertex -77.5 -10 0
      vertex -77.5 10 4
      vertex -77.5 10 0
    endloop
  endfacet
  facet normal 0 0 1
    outer loop
      vertex -52.647 -8.891 4
      vertex -52.056 -8.503 4
      vertex -77.5 -10 4
    endloop
  endfacet
  facet normal 0 0 1
    outer loop
      vertex -77.5 -10 4
      vertex -54.138 -10 4
      vertex -53.79 -9.722 4
    endloop
  endfacet
  facet normal 0 0 1
    outer loop
      vertex -52.056 -8.503 4
      vertex -51.453 -8.133 4
      vertex -77.5 -10 4
    endloop
  endfacet
  facet normal 0 0 1
    outer loop
      vertex -53.225 -9.297 4
      vertex -77.5 -10 4
      vertex -53.79 -9.722 4
    endloop
  endfacet
  facet normal 0 0 1
    outer loop
      vertex -53.225 -9.297 4
      vertex -52.647 -8.891 4
      vertex -77.5 -10 4
    endloop
  endfacet
  facet normal 0 0 1
    outer loop
      vertex -51.453 -8.133 4
      vertex -50.839 -7.783 4
      vertex -77.5 -10 4
    endloop
  endfacet
  facet normal 0 0 1
    outer loop
      vertex -50.839 -7.783 4
      vertex -50.215 -7.452 4
      vertex -77.5 -10 4
    endloop
  endfacet
  facet normal 0 0 1
    outer loop
      vertex -50.215 -7.452 4
      vertex -49.58 -7.141 4
      vertex -77.5 -10 4
    endloop
  endfacet
  facet normal 0 0 1
    outer loop
      vertex -49.58 -7.141 4
      vertex -48.936 -6.851 4
      vertex -77.5 -10 4
    endloop
  endfacet
  facet normal 0 0 1
    outer loop
      vertex -48.936 -6.851 4
      vertex -48.283 -6.58 4
      vertex -77.5 -10 4
    endloop
  endfacet
  facet normal 0 0 1
    outer loop
      vertex -48.283 -6.58 4
      vertex -47.622 -6.33 4
      vertex -77.5 -10 4
    endloop
  endfacet
  facet normal 0 0 1
    outer loop
      vertex -47.622 -6.33 4
      vertex -46.953 -6.101 4
      vertex -77.5 -10 4
    endloop
  endfacet
  facet normal 0 0 1
    outer loop
      vertex -46.953 -6.101 4
      vertex -46.277 -5.893 4
      vertex -77.5 -10 4
    endloop
  endfacet
  facet normal 0 0 1
    outer loop
      vertex -46.277 -5.893 4
      vertex -45.596 -5.707 4
      vertex -77.5 -10 4
    endloop
  endfacet
  facet normal 0 0 1
    outer loop
      vertex -45.596 -5.707 4
      vertex -44.908 -5.542 4
      vertex -77.5 -10 4
    endloop
  endfacet
  facet normal 0 0 1
    outer loop
      vertex -44.908 -5.542 4
      vertex -44.216 -5.399 4
      vertex -77.5 -10 4
    endloop
  endfacet
  facet normal 0 0 1
    outer loop
      vertex -44.216 -5.399 4
      vertex -43.52 -5.277 4
      vertex -77.5 -10 4
    endloop
  endfacet
  facet normal 0 0 1
    outer loop
      vertex -43.52 -5.277 4
      vertex -42.82 -5.177 4
      vertex -77.5 -10 4
    endloop
  endfacet
  facet normal 0 0 1
    outer loop
      vertex 46.953 6.101 4
      vertex 46.277 5.893 4
      vertex 77.5 10 4
    endloop
  endfacet
  facet normal 0 0 1
    outer loop
      vertex 40.707 -5.011 4
      vertex 77.5 10 4
      vertex 40 -5 4
    endloop
  endfacet
  facet normal 0 0 1
    outer loop
      vertex 41.413 -5.044 4
      vertex 77.5 10 4
      vertex 40.707 -5.011 4
    endloop
  endfacet
  facet normal 0 0 1
    outer loop
      vertex 42.117 -5.1 4
      vertex 77.5 10 4
      vertex 41.413 -5.044 4
    endloop
  endfacet
  facet normal 0 0 1
    outer loop
      vertex 42.82 -5.177 4
      vertex 77.5 10 4
      vertex 42.117 -5.1 4
    endloop
  endfacet
  facet normal 0 0 1
    outer loop
      vertex 43.52 -5.277 4
      vertex 77.5 -10 4
      vertex 42.82 -5.177 4
    endloop
  endfacet
  facet normal 0 0 1
    outer loop
      vertex 44.216 -5.399 4
      vertex 77.5 -10 4
      vertex 43.52 -5.277 4
    endloop
  endfacet
  facet normal 0 0 1
    outer loop
      vertex 44.908 -5.542 4
      vertex 77.5 -10 4
      vertex 44.216 -5.399 4
    endloop
  endfacet
  facet normal 0 0 1
    outer loop
      vertex 45.596 -5.707 4
      vertex 77.5 -10 4
      vertex 44.908 -5.542 4
    endloop
  endfacet
  facet normal 0 0 1
    outer loop
      vertex 46.277 -5.893 4
      vertex 77.5 -10 4
      vertex 45.596 -5.707 4
    endloop
  endfacet
  facet normal 0 0 1
    outer loop
      vertex 46.953 -6.101 4
      vertex 77.5 -10 4
      vertex 46.277 -5.893 4
    endloop
  endfacet
  facet normal 0 0 1
    outer loop
      vertex 47.622 -6.33 4
      vertex 77.5 -10 4
      vertex 46.953 -6.101 4
    endloop
  endfacet
  facet normal 0 0 1
    outer loop
      vertex 48.283 -6.58 4
      vertex 77.5 -10 4
      vertex 47.622 -6.33 4
    endloop
  endfacet
  facet normal 0 0 1
    outer loop
      vertex 48.936 -6.851 4
      vertex 77.5 -10 4
      vertex 48.283 -6.58 4
    endloop
  endfacet
  facet normal 0 0 1
    outer loop
      vertex 49.58 -7.141 4
      vertex 77.5 -10 4
      vertex 48.936 -6.851 4
    endloop
  endfacet
  facet normal 0 0 1
    outer loop
      vertex 50.215 -7.452 4
      vertex 77.5 -10 4
      vertex 49.58 -7.141 4
    endloop
  endfacet
  facet normal 0 0 1
    outer loop
      vertex 50.839 -7.783 4
      vertex 77.5 -10 4
      vertex 50.215 -7.452 4
    endloop
  endfacet
  facet normal 0 0 1
    outer loop
      vertex 51.453 -8.133 4
      vertex 77.5 -10 4
      vertex 50.839 -7.783 4
    endloop
  endfacet
  facet normal 0 0 1
    outer loop
      vertex 52.056 -8.503 4
      vertex 77.5 -10 4
      vertex 51.453 -8.133 4
    endloop
  endfacet
  facet normal 0 0 1
    outer loop
      vertex 52.647 -8.891 4
      vertex 77.5 -10 4
      vertex 52.056 -8.503 4
    endloop
  endfacet
  facet normal 0 0 1
    outer loop
      vertex 53.225 -9.297 4
      vertex 77.5 -10 4
      vertex 52.647 -8.891 4
    endloop
  endfacet
  facet normal 0 0 1
    outer loop
      vertex 53.79 -9.722 4
      vertex 77.5 -10 4
      vertex 53.225 -9.297 4
    endloop
  endfacet
  facet normal 0 0 1
    outer loop
      vertex -40 5 4
      vertex -40.707 5.011 4
      vertex -77.5 -10 4
    endloop
  endfacet
  facet normal 0 0 1
    outer loop
      vertex 54.138 -10 4
      vertex 77.5 -10 4
      vertex 53.79 -9.722 4
    endloop
  endfacet
  facet normal 0 0 1
    outer loop
      vertex 77.5 -10 4
      vertex 77.5 10 4
      vertex 42.82 -5.177 4
    endloop
  endfacet
  facet normal 0 0 1
    outer loop
      vertex 77.5 10 4
      vertex 54.138 10 4
      vertex 53.79 9.722 4
    endloop
  endfacet
  facet normal 0 0 1
    outer loop
      vertex 77.5 10 4
      vertex 53.79 9.722 4
      vertex 53.225 9.297 4
    endloop
  endfacet
  facet normal 0 0 1
    outer loop
      vertex 77.5 10 4
      vertex 53.225 9.297 4
      vertex 52.647 8.891 4
    endloop
  endfacet
  facet normal 0 0 1
    outer loop
      vertex 77.5 10 4
      vertex 52.647 8.891 4
      vertex 52.056 8.503 4
    endloop
  endfacet
  facet normal 0 0 1
    outer loop
      vertex 77.5 10 4
      vertex 52.056 8.503 4
      vertex 51.453 8.133 4
    endloop
  endfacet
  facet normal 0 0 1
    outer loop
      vertex 77.5 10 4
      vertex 51.453 8.133 4
      vertex 50.839 7.783 4
    endloop
  endfacet
  facet normal 0 0 1
    outer loop
      vertex 77.5 10 4
      vertex 50.839 7.783 4
      vertex 50.215 7.452 4
    endloop
  endfacet
  facet normal 0 0 1
    outer loop
      vertex 77.5 10 4
      vertex 50.215 7.452 4
      vertex 49.58 7.141 4
    endloop
  endfacet
  facet normal 0 0 1
    outer loop
      vertex 77.5 10 4
      vertex 49.58 7.141 4
      vertex 48.936 6.851 4
    endloop
  endfacet
  facet normal 0 0 1
    outer loop
      vertex 77.5 10 4
      vertex 48.936 6.851 4
      vertex 48.283 6.58 4
    endloop
  endfacet
  facet normal 0 0 1
    outer loop
      vertex 77.5 10 4
      vertex 48.283 6.58 4
      vertex 47.622 6.33 4
    endloop
  endfacet
  facet normal 0 0 1
    outer loop
      vertex 42.117 5.1 4
      vertex 41.413 5.044 4
      vertex -40 -5 4
    endloop
  endfacet
  facet normal 0 0 1
    outer loop
      vertex 40 -5 4
      vertex 77.5 10 4
      vertex 46.277 5.893 4
    endloop
  endfacet
  facet normal 0 0 1
    outer loop
      vertex 40 -5 4
      vertex 46.277 5.893 4
      vertex 45.596 5.707 4
    endloop
  endfacet
  facet normal 0 0 1
    outer loop
      vertex 40 -5 4
      vertex 45.596 5.707 4
      vertex 44.908 5.542 4
    endloop
  endfacet
  facet normal 0 0 1
    outer loop
      vertex 40.707 5.011 4
      vertex 40 5 4
      vertex -40 -5 4
    endloop
  endfacet
  facet normal 0 0 1
    outer loop
      vertex 40 -5 4
      vertex 44.908 5.542 4
      vertex 44.216 5.399 4
    endloop
  endfacet
  facet normal 0 0 1
    outer loop
      vertex 41.413 5.044 4
      vertex 40.707 5.011 4
      vertex -40 -5 4
    endloop
  endfacet
  facet normal 0 0 1
    outer loop
      vertex 40 -5 4
      vertex 44.216 5.399 4
      vertex 43.52 5.277 4
    endloop
  endfacet
  facet normal 0 0 1
    outer loop
      vertex 40 -5 4
      vertex 42.82 5.177 4
      vertex -40 -5 4
    endloop
  endfacet
  facet normal 0 0 1
    outer loop
      vertex 40 -5 4
      vertex 43.52 5.277 4
      vertex 42.82 5.177 4
    endloop
  endfacet
  facet normal 0 0 1
    outer loop
      vertex 42.82 5.177 4
      vertex 42.117 5.1 4
      vertex -40 -5 4
    endloop
  endfacet
  facet normal 0 0 1
    outer loop
      vertex -40.707 5.011 4
      vertex -41.413 5.044 4
      vertex -77.5 -10 4
    endloop
  endfacet
  facet normal 0 0 1
    outer loop
      vertex -41.413 5.044 4
      vertex -42.117 5.1 4
      vertex -77.5 -10 4
    endloop
  endfacet
  facet normal 0 0 1
    outer loop
      vertex -42.117 5.1 4
      vertex -42.82 5.177 4
      vertex -77.5 -10 4
    endloop
  endfacet
  facet normal 0 0 1
    outer loop
      vertex -42.82 5.177 4
      vertex -43.52 5.277 4
      vertex -77.5 -10 4
    endloop
  endfacet
  facet normal 0 0 1
    outer loop
      vertex -43.52 5.277 4
      vertex -44.216 5.399 4
      vertex -77.5 -10 4
    endloop
  endfacet
  facet normal 0 0 1
    outer loop
      vertex -44.216 5.399 4
      vertex -44.908 5.542 4
      vertex -77.5 -10 4
    endloop
  endfacet
  facet normal 0 0 1
    outer loop
      vertex -44.908 5.542 4
      vertex -45.596 5.707 4
      vertex -77.5 -10 4
    endloop
  endfacet
  facet normal 0 0 1
    outer loop
      vertex -45.596 5.707 4
      vertex -46.277 5.893 4
      vertex -77.5 -10 4
    endloop
  endfacet
  facet normal 0 0 1
    outer loop
      vertex -46.277 5.893 4
      vertex -46.953 6.101 4
      vertex -77.5 -10 4
    endloop
  endfacet
  facet normal 0 0 1
    outer loop
      vertex -46.953 6.101 4
      vertex -47.622 6.33 4
      vertex -77.5 -10 4
    endloop
  endfacet
  facet normal 0 0 1
    outer loop
      vertex -47.622 6.33 4
      vertex -48.283 6.58 4
      vertex -77.5 -10 4
    endloop
  endfacet
  facet normal 0 0 1
    outer loop
      vertex -48.283 6.58 4
      vertex -48.936 6.851 4
      vertex -77.5 -10 4
    endloop
  endfacet
  facet normal 0 0 1
    outer loop
      vertex -48.936 6.851 4
      vertex -49.58 7.141 4
      vertex -77.5 -10 4
    endloop
  endfacet
  facet normal 0 0 1
    outer loop
      vertex -49.58 7.141 4
      vertex -50.215 7.452 4
      vertex -77.5 -10 4
    endloop
  endfacet
  facet normal 0 0 1
    outer loop
      vertex -50.215 7.452 4
      vertex -50.839 7.783 4
      vertex -77.5 -10 4
    endloop
  endfacet
  facet normal 0 0 1
    outer loop
      vertex -50.839 7.783 4
      vertex -51.453 8.133 4
      vertex -77.5 -10 4
    endloop
  endfacet
  facet normal 0 0 1
    outer loop
      vertex -51.453 8.133 4
      vertex -52.056 8.503 4
      vertex -77.5 -10 4
    endloop
  endfacet
  facet normal 0 0 1
    outer loop
      vertex -52.056 8.503 4
      vertex -52.647 8.891 4
      vertex -77.5 -10 4
    endloop
  endfacet
  facet normal 0 0 1
    outer loop
      vertex -52.647 8.891 4
      vertex -53.225 9.297 4
      vertex -77.5 -10 4
    endloop
  endfacet
  facet normal 0 0 1
    outer loop
      vertex -53.225 9.297 4
      vertex -53.79 9.722 4
      vertex -77.5 -10 4
    endloop
  endfacet
  facet normal 0 0 1
    outer loop
      vertex -53.79 9.722 4
      vertex -54.138 10 4
      vertex -77.5 -10 4
    endloop
  endfacet
  facet normal 0 0 1
    outer loop
      vertex -54.138 10 4
      vertex -77.5 10 4
      vertex -77.5 -10 4
    endloop
  endfacet
  facet normal 0 0 1
    outer loop
      vertex 47.622 6.33 4
      vertex 46.953 6.101 4
      vertex 77.5 10 4
    endloop
  endfacet
  facet normal 0 0 1
    outer loop
      vertex 40 5 4
      vertex -40.707 -5.011 4
      vertex -40 -5 4
    endloop
  endfacet
  facet normal 0 0 1
    outer loop
      vertex 40 5 4
      vertex -41.413 -5.044 4
      vertex -40.707 -5.011 4
    endloop
  endfacet
  facet normal 0 0 1
    outer loop
      vertex 40 5 4
      vertex -42.117 -5.1 4
      vertex -41.413 -5.044 4
    endloop
  endfacet
  facet normal 0 0 1
    outer loop
      vertex 40 5 4
      vertex -42.82 -5.177 4
      vertex -42.117 -5.1 4
    endloop
  endfacet
  facet normal 0 0 1
    outer loop
      vertex -42.82 -5.177 4
      vertex -40 5 4
      vertex -77.5 -10 4
    endloop
  endfacet
  facet normal 0 0 1
    outer loop
      vertex 40 5 4
      vertex -40 5 4
      vertex -42.82 -5.177 4
    endloop
  endfacet
  facet normal 0.601131 -0.799151 0
    outer loop
      vertex -53.79 -9.722 0
      vertex -53.225 -9.297 0
      vertex -53.225 -9.297 4
    endloop
  endfacet
  facet normal 0.601131 -0.799151 0
    outer loop
      vertex -53.79 -9.722 4
      vertex -53.79 -9.722 0
      vertex -53.225 -9.297 4
    endloop
  endfacet
  facet normal 0.574792 -0.8183 0
    outer loop
      vertex -53.225 -9.297 0
      vertex -52.647 -8.891 0
      vertex -52.647 -8.891 4
    endloop
  endfacet
  facet normal 0.574792 -0.8183 0
    outer loop
      vertex -53.225 -9.297 4
      vertex -53.225 -9.297 0
      vertex -52.647 -8.891 4
    endloop
  endfacet
  facet normal 0.548811 -0.835947 0
    outer loop
      vertex -52.647 -8.891 0
      vertex -52.056 -8.503 0
      vertex -52.056 -8.503 4
    endloop
  endfacet
  facet normal 0.548811 -0.835947 0
    outer loop
      vertex -52.647 -8.891 4
      vertex -52.647 -8.891 0
      vertex -52.056 -8.503 4
    endloop
  endfacet
  facet normal 0.522993 -0.852337 0
    outer loop
      vertex -52.056 -8.503 0
      vertex -51.453 -8.133 0
      vertex -51.453 -8.133 4
    endloop
  endfacet
  facet normal 0.522993 -0.852337 0
    outer loop
      vertex -52.056 -8.503 4
      vertex -52.056 -8.503 0
      vertex -51.453 -8.133 4
    endloop
  endfacet
  facet normal 0.495224 -0.868765 0
    outer loop
      vertex -51.453 -8.133 0
      vertex -50.839 -7.783 0
      vertex -50.839 -7.783 4
    endloop
  endfacet
  facet normal 0.495224 -0.868765 0
    outer loop
      vertex -51.453 -8.133 4
      vertex -51.453 -8.133 0
      vertex -50.839 -7.783 4
    endloop
  endfacet
  facet normal 0.468603 -0.883409 0
    outer loop
      vertex -50.839 -7.783 0
      vertex -50.215 -7.452 0
      vertex -50.215 -7.452 4
    endloop
  endfacet
  facet normal 0.468603 -0.883409 0
    outer loop
      vertex -50.839 -7.783 4
      vertex -50.839 -7.783 0
      vertex -50.215 -7.452 4
    endloop
  endfacet
  facet normal 0.439844 -0.898074 0
    outer loop
      vertex -50.215 -7.452 0
      vertex -49.58 -7.141 0
      vertex -49.58 -7.141 4
    endloop
  endfacet
  facet normal 0.439844 -0.898074 0
    outer loop
      vertex -50.215 -7.452 4
      vertex -50.215 -7.452 0
      vertex -49.58 -7.141 4
    endloop
  endfacet
  facet normal 0.4106 -0.911816 0
    outer loop
      vertex -49.58 -7.141 0
      vertex -48.936 -6.851 0
      vertex -48.936 -6.851 4
    endloop
  endfacet
  facet normal 0.4106 -0.911816 0
    outer loop
      vertex -49.58 -7.141 4
      vertex -49.58 -7.141 0
      vertex -48.936 -6.851 4
    endloop
  endfacet
  facet normal 0.383309 -0.92362 0
    outer loop
      vertex -48.936 -6.851 0
      vertex -48.283 -6.58 0
      vertex -48.283 -6.58 4
    endloop
  endfacet
  facet normal 0.383309 -0.92362 0
    outer loop
      vertex -48.936 -6.851 4
      vertex -48.936 -6.851 0
      vertex -48.283 -6.58 4
    endloop
  endfacet
  facet normal 0.353758 -0.935337 0
    outer loop
      vertex -48.283 -6.58 0
      vertex -47.622 -6.33 0
      vertex -47.622 -6.33 4
    endloop
  endfacet
  facet normal 0.353758 -0.935337 0
    outer loop
      vertex -48.283 -6.58 4
      vertex -48.283 -6.58 0
      vertex -47.622 -6.33 4
    endloop
  endfacet
  facet normal 0.323854 -0.946107 0
    outer loop
      vertex -47.622 -6.33 0
      vertex -46.953 -6.101 0
      vertex -46.953 -6.101 4
    endloop
  endfacet
  facet normal 0.323854 -0.946107 0
    outer loop
      vertex -47.622 -6.33 4
      vertex -47.622 -6.33 0
      vertex -46.953 -6.101 4
    endloop
  endfacet
  facet normal 0.294086 -0.955779 0
    outer loop
      vertex -46.953 -6.101 0
      vertex -46.277 -5.893 0
      vertex -46.277 -5.893 4
    endloop
  endfacet
  facet normal 0.294086 -0.955779 0
    outer loop
      vertex -46.953 -6.101 4
      vertex -46.953 -6.101 0
      vertex -46.277 -5.893 4
    endloop
  endfacet
  facet normal 0.263477 -0.964666 0
    outer loop
      vertex -46.277 -5.893 0
      vertex -45.596 -5.707 0
      vertex -45.596 -5.707 4
    endloop
  endfacet
  facet normal 0.263477 -0.964666 0
    outer loop
      vertex -46.277 -5.893 4
      vertex -46.277 -5.893 0
      vertex -45.596 -5.707 4
    endloop
  endfacet
  facet normal 0.233213 -0.972426 0
    outer loop
      vertex -45.596 -5.707 0
      vertex -44.908 -5.542 0
      vertex -44.908 -5.542 4
    endloop
  endfacet
  facet normal 0.233213 -0.972426 0
    outer loop
      vertex -45.596 -5.707 4
      vertex -45.596 -5.707 0
      vertex -44.908 -5.542 4
    endloop
  endfacet
  facet normal 0.202372 -0.979309 0
    outer loop
      vertex -44.908 -5.542 0
      vertex -44.216 -5.399 0
      vertex -44.216 -5.399 4
    endloop
  endfacet
  facet normal 0.202372 -0.979309 0
    outer loop
      vertex -44.908 -5.542 4
      vertex -44.908 -5.542 0
      vertex -44.216 -5.399 4
    endloop
  endfacet
  facet normal 0.172655 -0.984982 0
    outer loop
      vertex -44.216 -5.399 0
      vertex -43.52 -5.277 0
      vertex -43.52 -5.277 4
    endloop
  endfacet
  facet normal 0.172655 -0.984982 0
    outer loop
      vertex -44.216 -5.399 4
      vertex -44.216 -5.399 0
      vertex -43.52 -5.277 4
    endloop
  endfacet
  facet normal 0.141421 -0.989949 0
    outer loop
      vertex -43.52 -5.277 0
      vertex -42.82 -5.177 0
      vertex -42.82 -5.177 4
    endloop
  endfacet
  facet normal 0.141421 -0.989949 0
    outer loop
      vertex -43.52 -5.277 4
      vertex -43.52 -5.277 0
      vertex -42.82 -5.177 4
    endloop
  endfacet
  facet normal 0.108879 -0.994055 0
    outer loop
      vertex -42.82 -5.177 0
      vertex -42.117 -5.1 0
      vertex -42.117 -5.1 4
    endloop
  endfacet
  facet normal 0.108879 -0.994055 0
    outer loop
      vertex -42.82 -5.177 4
      vertex -42.82 -5.177 0
      vertex -42.117 -5.1 4
    endloop
  endfacet
  facet normal 0.079295 -0.996851 0
    outer loop
      vertex -42.117 -5.1 0
      vertex -41.413 -5.044 0
      vertex -41.413 -5.044 4
    endloop
  endfacet
  facet normal 0.079295 -0.996851 0
    outer loop
      vertex -42.117 -5.1 4
      vertex -42.117 -5.1 0
      vertex -41.413 -5.044 4
    endloop
  endfacet
  facet normal 0.0466912 -0.998909 0
    outer loop
      vertex -41.413 -5.044 0
      vertex -40.707 -5.011 0
      vertex -40.707 -5.011 4
    endloop
  endfacet
  facet normal 0.0466912 -0.998909 0
    outer loop
      vertex -41.413 -5.044 4
      vertex -41.413 -5.044 0
      vertex -40.707 -5.011 4
    endloop
  endfacet
  facet normal 0.0155568 -0.999879 0
    outer loop
      vertex -40.707 -5.011 0
      vertex -40 -5 0
      vertex -40 -5 4
    endloop
  endfacet
  facet normal 0.0155568 -0.999879 0
    outer loop
      vertex -40.707 -5.011 4
      vertex -40.707 -5.011 0
      vertex -40 -5 4
    endloop
  endfacet
  facet normal 0 -1 0
    outer loop
      vertex -40 -5 0
      vertex 40 -5 0
      vertex 40 -5 4
    endloop
  endfacet
  facet normal 0 -1 0
    outer loop
      vertex -40 -5 4
      vertex -40 -5 0
      vertex 40 -5 4
    endloop
  endfacet
  facet normal -0.0155568 -0.999879 0
    outer loop
      vertex 40 -5 0
      vertex 40.707 -5.011 0
      vertex 40.707 -5.011 4
    endloop
  endfacet
  facet normal -0.0155568 -0.999879 0
    outer loop
      vertex 40 -5 4
      vertex 40 -5 0
      vertex 40.707 -5.011 4
    endloop
  endfacet
  facet normal -0.0466912 -0.998909 0
    outer loop
      vertex 40.707 -5.011 0
      vertex 41.413 -5.044 0
      vertex 41.413 -5.044 4
    endloop
  endfacet
  facet normal -0.0466912 -0.998909 0
    outer loop
      vertex 40.707 -5.011 4
      vertex 40.707 -5.011 0
      vertex 41.413 -5.044 4
    endloop
  endfacet
  facet normal -0.079295 -0.996851 0
    outer loop
      vertex 41.413 -5.044 0
      vertex 42.117 -5.1 0
      vertex 42.117 -5.1 4
    endloop
  endfacet
  facet normal -0.079295 -0.996851 0
    outer loop
      vertex 41.413 -5.044 4
      vertex 41.413 -5.044 0
      vertex 42.117 -5.1 4
    endloop
  endfacet
  facet normal -0.108879 -0.994055 0
    outer loop
      vertex 42.117 -5.1 0
      vertex 42.82 -5.177 0
      vertex 42.82 -5.177 4
    endloop
  endfacet
  facet normal -0.108879 -0.994055 0
    outer loop
      vertex 42.117 -5.1 4
      vertex 42.117 -5.1 0
      vertex 42.82 -5.177 4
    endloop
  endfacet
  facet normal -0.141421 -0.989949 0
    outer loop
      vertex 42.82 -5.177 0
      vertex 43.52 -5.277 0
      vertex 43.52 -5.277 4
    endloop
  endfacet
  facet normal -0.141421 -0.989949 0
    outer loop
      vertex 42.82 -5.177 4
      vertex 42.82 -5.177 0
      vertex 43.52 -5.277 4
    endloop
  endfacet
  facet normal -0.172655 -0.984982 0
    outer loop
      vertex 43.52 -5.277 0
      vertex 44.216 -5.399 0
      vertex 44.216 -5.399 4
    endloop
  endfacet
  facet normal -0.172655 -0.984982 0
    outer loop
      vertex 43.52 -5.277 4
      vertex 43.52 -5.277 0
      vertex 44.216 -5.399 4
    endloop
  endfacet
  facet normal -0.202372 -0.979309 0
    outer loop
      vertex 44.216 -5.399 0
      vertex 44.908 -5.542 0
      vertex 44.908 -5.542 4
    endloop
  endfacet
  facet normal -0.202372 -0.979309 0
    outer loop
      vertex 44.216 -5.399 4
      vertex 44.216 -5.399 0
      vertex 44.908 -5.542 4
    endloop
  endfacet
  facet normal -0.233213 -0.972426 0
    outer loop
      vertex 44.908 -5.542 0
      vertex 45.596 -5.707 0
      vertex 45.596 -5.707 4
    endloop
  endfacet
  facet normal -0.233213 -0.972426 0
    outer loop
      vertex 44.908 -5.542 4
      vertex 44.908 -5.542 0
      vertex 45.596 -5.707 4
    endloop
  endfacet
  facet normal -0.263477 -0.964666 0
    outer loop
      vertex 45.596 -5.707 0
      vertex 46.277 -5.893 0
      vertex 46.277 -5.893 4
    endloop
  endfacet
  facet normal -0.263477 -0.964666 0
    outer loop
      vertex 45.596 -5.707 4
      vertex 45.596 -5.707 0
      vertex 46.277 -5.893 4
    endloop
  endfacet
  facet normal -0.294086 -0.955779 0
    outer loop
      vertex 46.277 -5.893 0
      vertex 46.953 -6.101 0
      vertex 46.953 -6.101 4
    endloop
  endfacet
  facet normal -0.294086 -0.955779 0
    outer loop
      vertex 46.277 -5.893 4
      vertex 46.277 -5.893 0
      vertex 46.953 -6.101 4
    endloop
  endfacet
  facet normal -0.323854 -0.946107 0
    outer loop
      vertex 46.953 -6.101 0
      vertex 47.622 -6.33 0
      vertex 47.622 -6.33 4
    endloop
  endfacet
  facet normal -0.323854 -0.946107 0
    outer loop
      vertex 46.953 -6.101 4
      vertex 46.953 -6.101 0
      vertex 47.622 -6.33 4
    endloop
  endfacet
  facet normal -0.353758 -0.935337 0
    outer loop
      vertex 47.622 -6.33 0
      vertex 48.283 -6.58 0
      vertex 48.283 -6.58 4
    endloop
  endfacet
  facet normal -0.353758 -0.935337 0
    outer loop
      vertex 47.622 -6.33 4
      vertex 47.622 -6.33 0
      vertex 48.283 -6.58 4
    endloop
  endfacet
  facet normal -0.383309 -0.92362 0
    outer loop
      vertex 48.283 -6.58 0
      vertex 48.936 -6.851 0
      vertex 48.936 -6.851 4
    endloop
  endfacet
  facet normal -0.383309 -0.92362 0
    outer loop
      vertex 48.283 -6.58 4
      vertex 48.283 -6.58 0
      vertex 48.936 -6.851 4
    endloop
  endfacet
  facet normal -0.4106 -0.911816 0
    outer loop
      vertex 48.936 -6.851 0
      vertex 49.58 -7.141 0
      vertex 49.58 -7.141 4
    endloop
  endfacet
  facet normal -0.4106 -0.911816 0
    outer loop
      vertex 48.936 -6.851 4
      vertex 48.936 -6.851 0
      vertex 49.58 -7.141 4
    endloop
  endfacet
  facet normal -0.439844 -0.898074 0
    outer loop
      vertex 49.58 -7.141 0
      vertex 50.215 -7.452 0
      vertex 50.215 -7.452 4
    endloop
  endfacet
  facet normal -0.439844 -0.898074 0
    outer loop
      vertex 49.58 -7.141 4
      vertex 49.58 -7.141 0
      vertex 50.215 -7.452 4
    endloop
  endfacet
  facet normal -0.468603 -0.883409 0
    outer loop
      vertex 50.215 -7.452 0
      vertex 50.839 -7.783 0
      vertex 50.839 -7.783 4
    endloop
  endfacet
  facet normal -0.468603 -0.883409 0
    outer loop
      vertex 50.215 -7.452 4
      vertex 50.215 -7.452 0
      vertex 50.839 -7.783 4
    endloop
  endfacet
  facet normal -0.495224 -0.868765 0
    outer loop
      vertex 50.839 -7.783 0
      vertex 51.453 -8.133 0
      vertex 51.453 -8.133 4
    endloop
  endfacet
  facet normal -0.495224 -0.868765 0
    outer loop
      vertex 50.839 -7.783 4
      vertex 50.839 -7.783 0
      vertex 51.453 -8.133 4
    endloop
  endfacet
  facet normal -0.522993 -0.852337 0
    outer loop
      vertex 51.453 -8.133 0
      vertex 52.056 -8.503 0
      vertex 52.056 -8.503 4
    endloop
  endfacet
  facet normal -0.522993 -0.852337 0
    outer loop
      vertex 51.453 -8.133 4
      vertex 51.453 -8.133 0
      vertex 52.056 -8.503 4
    endloop
  endfacet
  facet normal -0.548811 -0.835947 0
    outer loop
      vertex 52.056 -8.503 0
      vertex 52.647 -8.891 0
      vertex 52.647 -8.891 4
    endloop
  endfacet
  facet normal -0.548811 -0.835947 0
    outer loop
      vertex 52.056 -8.503 4
      vertex 52.056 -8.503 0
      vertex 52.647 -8.891 4
    endloop
  endfacet
  facet normal -0.574792 -0.8183 0
    outer loop
      vertex 52.647 -8.891 0
      vertex 53.225 -9.297 0
      vertex 53.225 -9.297 4
    endloop
  endfacet
  facet normal -0.574792 -0.8183 0
    outer loop
      vertex 52.647 -8.891 4
      vertex 52.647 -8.891 0
      vertex 53.225 -9.297 4
    endloop
  endfacet
  facet normal -0.601131 -0.799151 0
    outer loop
      vertex 53.225 -9.297 0
      vertex 53.79 -9.722 0
      vertex 53.79 -9.722 4
    endloop
  endfacet
  facet normal -0.601131 -0.799151 0
    outer loop
      vertex 53.225 -9.297 4
      vertex 53.225 -9.297 0
      vertex 53.79 -9.722 4
    endloop
  endfacet
  facet normal -0.624147 -0.781307 0
    outer loop
      vertex 53.79 -9.722 0
      vertex 54.138 -10 0
      vertex 54.138 -10 4
    endloop
  endfacet
  facet normal -0.624147 -0.781307 0
    outer loop
      vertex 53.79 -9.722 4
      vertex 53.79 -9.722 0
      vertex 54.138 -10 4
    endloop
  endfacet
  facet normal 0 -1 0
    outer loop
      vertex 54.138 -10 0
      vertex 77.5 -10 0
      vertex 77.5 -10 4
    endloop
  endfacet
  facet normal 0 -1 0
    outer loop
      vertex 54.138 -10 4
      vertex 54.138 -10 0
      vertex 77.5 -10 4
    endloop
  endfacet
  facet normal 1 0 0
    outer loop
      vertex 77.5 -10 0
      vertex 77.5 10 0
      vertex 77.5 10 4
    endloop
  endfacet
  facet normal 1 0 0
    outer loop
      vertex 77.5 -10 4
      vertex 77.5 -10 0
      vertex 77.5 10 4
    endloop
  endfacet
  facet normal 0 1 0
    outer loop
      vertex 54.138 10 4
      vertex 77.5 10 4
      vertex 54.138 10 0
    endloop
  endfacet
  facet normal 0 1 0
    outer loop
      vertex 54.138 10 0
      vertex 77.5 10 4
      vertex 77.5 10 0
    endloop
  endfacet
  facet normal -0.624147 0.781307 0
    outer loop
      vertex 53.79 9.722 4
      vertex 54.138 10 4
      vertex 53.79 9.722 0
    endloop
  endfacet
  facet normal -0.624147 0.781307 0
    outer loop
      vertex 53.79 9.722 0
      vertex 54.138 10 4
      vertex 54.138 10 0
    endloop
  endfacet
  facet normal -0.601131 0.799151 0
    outer loop
      vertex 53.225 9.297 4
      vertex 53.79 9.722 4
      vertex 53.225 9.297 0
    endloop
  endfacet
  facet normal -0.601131 0.799151 0
    outer loop
      vertex 53.225 9.297 0
      vertex 53.79 9.722 4
      vertex 53.79 9.722 0
    endloop
  endfacet
  facet normal -0.574792 0.8183 0
    outer loop
      vertex 52.647 8.891 4
      vertex 53.225 9.297 4
      vertex 52.647 8.891 0
    endloop
  endfacet
  facet normal -0.574792 0.8183 0
    outer loop
      vertex 52.647 8.891 0
      vertex 53.225 9.297 4
      vertex 53.225 9.297 0
    endloop
  endfacet
  facet normal -0.548811 0.835947 0
    outer loop
      vertex 52.056 8.503 4
      vertex 52.647 8.891 4
      vertex 52.056 8.503 0
    endloop
  endfacet
  facet normal -0.548811 0.835947 0
    outer loop
      vertex 52.056 8.503 0
      vertex 52.647 8.891 4
      vertex 52.647 8.891 0
    endloop
  endfacet
  facet normal -0.522993 0.852337 0
    outer loop
      vertex 51.453 8.133 4
      vertex 52.056 8.503 4
      vertex 51.453 8.133 0
    endloop
  endfacet
  facet normal -0.522993 0.852337 0
    outer loop
      vertex 51.453 8.133 0
      vertex 52.056 8.503 4
      vertex 52.056 8.503 0
    endloop
  endfacet
  facet normal -0.495224 0.868765 0
    outer loop
      vertex 50.839 7.783 4
      vertex 51.453 8.133 4
      vertex 50.839 7.783 0
    endloop
  endfacet
  facet normal -0.495224 0.868765 0
    outer loop
      vertex 50.839 7.783 0
      vertex 51.453 8.133 4
      vertex 51.453 8.133 0
    endloop
  endfacet
  facet normal -0.468603 0.883409 0
    outer loop
      vertex 50.215 7.452 4
      vertex 50.839 7.783 4
      vertex 50.215 7.452 0
    endloop
  endfacet
  facet normal -0.468603 0.883409 0
    outer loop
      vertex 50.215 7.452 0
      vertex 50.839 7.783 4
      vertex 50.839 7.783 0
    endloop
  endfacet
  facet normal -0.439844 0.898074 0
    outer loop
      vertex 49.58 7.141 4
      vertex 50.215 7.452 4
      vertex 49.58 7.141 0
    endloop
  endfacet
  facet normal -0.439844 0.898074 0
    outer loop
      vertex 49.58 7.141 0
      vertex 50.215 7.452 4
      vertex 50.215 7.452 0
    endloop
  endfacet
  facet normal -0.4106 0.911816 0
    outer loop
      vertex 48.936 6.851 4
      vertex 49.58 7.141 4
      vertex 48.936 6.851 0
    endloop
  endfacet
  facet normal -0.4106 0.911816 0
    outer loop
      vertex 48.936 6.851 0
      vertex 49.58 7.141 4
      vertex 49.58 7.141 0
    endloop
  endfacet
  facet normal -0.383309 0.92362 0
    outer loop
      vertex 48.283 6.58 4
      vertex 48.936 6.851 4
      vertex 48.283 6.58 0
    endloop
  endfacet
  facet normal -0.383309 0.92362 0
    outer loop
      vertex 48.283 6.58 0
      vertex 48.936 6.851 4
      vertex 48.936 6.851 0
    endloop
  endfacet
  facet normal -0.353758 0.935337 0
    outer loop
      vertex 47.622 6.33 4
      vertex 48.283 6.58 4
      vertex 47.622 6.33 0
    endloop
  endfacet
  facet normal -0.353758 0.935337 0
    outer loop
      vertex 47.622 6.33 0
      vertex 48.283 6.58 4
      vertex 48.283 6.58 0
    endloop
  endfacet
  facet normal -0.323854 0.946107 0
    outer loop
      vertex 46.953 6.101 4
      vertex 47.622 6.33 4
      vertex 46.953 6.101 0
    endloop
  endfacet
  facet normal -0.323854 0.946107 0
    outer loop
      vertex 46.953 6.101 0
      vertex 47.622 6.33 4
      vertex 47.622 6.33 0
    endloop
  endfacet
  facet normal -0.294086 0.955779 0
    outer loop
      vertex 46.277 5.893 4
      vertex 46.953 6.101 4
      vertex 46.277 5.893 0
    endloop
  endfacet
  facet normal -0.294086 0.955779 0
    outer loop
      vertex 46.277 5.893 0
      vertex 46.953 6.101 4
      vertex 46.953 6.101 0
    endloop
  endfacet
  facet normal -0.263477 0.964666 0
    outer loop
      vertex 45.596 5.707 4
      vertex 46.277 5.893 4
      vertex 45.596 5.707 0
    endloop
  endfacet
  facet normal -0.263477 0.964666 0
    outer loop
      vertex 45.596 5.707 0
      vertex 46.277 5.893 4
      vertex 46.277 5.893 0
    endloop
  endfacet
  facet normal -0.233213 0.972426 0
    outer loop
      vertex 44.908 5.542 4
      vertex 45.596 5.707 4
      vertex 44.908 5.542 0
    endloop
  endfacet
  facet normal -0.233213 0.972426 0
    outer loop
      vertex 44.908 5.542 0
      vertex 45.596 5.707 4
      vertex 45.596 5.707 0
    endloop
  endfacet
  facet normal -0.202372 0.979309 0
    outer loop
      vertex 44.216 5.399 4
      vertex 44.908 5.542 4
      vertex 44.216 5.399 0
    endloop
  endfacet
  facet normal -0.202372 0.979309 0
    outer loop
      vertex 44.216 5.399 0
      vertex 44.908 5.542 4
      vertex 44.908 5.542 0
    endloop
  endfacet
  facet normal -0.172655 0.984982 0
    outer loop
      vertex 43.52 5.277 4
      vertex 44.216 5.399 4
      vertex 43.52 5.277 0
    endloop
  endfacet
  facet normal -0.172655 0.984982 0
    outer loop
      vertex 43.52 5.277 0
      vertex 44.216 5.399 4
      vertex 44.216 5.399 0
    endloop
  endfacet
  facet normal -0.141421 0.989949 0
    outer loop
      vertex 42.82 5.177 4
      vertex 43.52 5.277 4
      vertex 42.82 5.177 0
    endloop
  endfacet
  facet normal -0.141421 0.989949 0
    outer loop
      vertex 42.82 5.177 0
      vertex 43.52 5.277 4
      vertex 43.52 5.277 0
    endloop
  endfacet
  facet normal -0.108879 0.994055 0
    outer loop
      vertex 42.117 5.1 4
      vertex 42.82 5.177 4
      vertex 42.117 5.1 0
    endloop
  endfacet
  facet normal -0.108879 0.994055 0
    outer loop
      vertex 42.117 5.1 0
      vertex 42.82 5.177 4
      vertex 42.82 5.177 0
    endloop
  endfacet
  facet normal -0.079295 0.996851 0
    outer loop
      vertex 41.413 5.044 4
      vertex 42.117 5.1 4
      vertex 41.413 5.044 0
    endloop
  endfacet
  facet normal -0.079295 0.996851 0
    outer loop
      vertex 41.413 5.044 0
      vertex 42.117 5.1 4
      vertex 42.117 5.1 0
    endloop
  endfacet
  facet normal -0.0466912 0.998909 0
    outer loop
      vertex 40.707 5.011 4
      vertex 41.413 5.044 4
      vertex 40.707 5.011 0
    endloop
  endfacet
  facet normal -0.0466912 0.998909 0
    outer loop
      vertex 40.707 5.011 0
      vertex 41.413 5.044 4
      vertex 41.413 5.044 0
    endloop
  endfacet
  facet normal -0.0155568 0.999879 0
    outer loop
      vertex 40 5 4
      vertex 40.707 5.011 4
      vertex 40 5 0
    endloop
  endfacet
  facet normal -0.0155568 0.999879 0
    outer loop
      vertex 40 5 0
      vertex 40.707 5.011 4
      vertex 40.707 5.011 0
    endloop
  endfacet
  facet normal 0 1 0
    outer loop
      vertex -40 5 4
      vertex 40 5 4
      vertex -40 5 0
    endloop
  endfacet
  facet normal 0 1 0
    outer loop
      vertex -40 5 0
      vertex 40 5 4
      vertex 40 5 0
    endloop
  endfacet
  facet normal 0.0155568 0.999879 0
    outer loop
      vertex -40.707 5.011 4
      vertex -40 5 4
      vertex -40.707 5.011 0
    endloop
  endfacet
  facet normal 0.0155568 0.999879 0
    outer loop
      vertex -40.707 5.011 0
      vertex -40 5 4
      vertex -40 5 0
    endloop
  endfacet
  facet normal 0.0466912 0.998909 0
    outer loop
      vertex -41.413 5.044 4
      vertex -40.707 5.011 4
      vertex -41.413 5.044 0
    endloop
  endfacet
  facet normal 0.0466912 0.998909 0
    outer loop
      vertex -41.413 5.044 0
      vertex -40.707 5.011 4
      vertex -40.707 5.011 0
    endloop
  endfacet
  facet normal 0.079295 0.996851 0
    outer loop
      vertex -42.117 5.1 4
      vertex -41.413 5.044 4
      vertex -42.117 5.1 0
    endloop
  endfacet
  facet normal 0.079295 0.996851 0
    outer loop
      vertex -42.117 5.1 0
      vertex -41.413 5.044 4
      vertex -41.413 5.044 0
    endloop
  endfacet
  facet normal 0.108879 0.994055 0
    outer loop
      vertex -42.82 5.177 4
      vertex -42.117 5.1 4
      vertex -42.82 5.177 0
    endloop
  endfacet
  facet normal 0.108879 0.994055 0
    outer loop
      vertex -42.82 5.177 0
      vertex -42.117 5.1 4
      vertex -42.117 5.1 0
    endloop
  endfacet
  facet normal 0.141421 0.989949 0
    outer loop
      vertex -43.52 5.277 4
      vertex -42.82 5.177 4
      vertex -43.52 5.277 0
    endloop
  endfacet
  facet normal 0.141421 0.989949 0
    outer loop
      vertex -43.52 5.277 0
      vertex -42.82 5.177 4
      vertex -42.82 5.177 0
    endloop
  endfacet
  facet normal 0.172655 0.984982 0
    outer loop
      vertex -44.216 5.399 4
      vertex -43.52 5.277 4
      vertex -44.216 5.399 0
    endloop
  endfacet
  facet normal 0.172655 0.984982 0
    outer loop
      vertex -44.216 5.399 0
      vertex -43.52 5.277 4
      vertex -43.52 5.277 0
    endloop
  endfacet
  facet normal 0.202372 0.979309 0
    outer loop
      vertex -44.908 5.542 4
      vertex -44.216 5.399 4
      vertex -44.908 5.542 0
    endloop
  endfacet
  facet normal 0.202372 0.979309 0
    outer loop
      vertex -44.908 5.542 0
      vertex -44.216 5.399 4
      vertex -44.216 5.399 0
    endloop
  endfacet
  facet normal 0.233213 0.972426 0
    outer loop
      vertex -45.596 5.707 4
      vertex -44.908 5.542 4
      vertex -45.596 5.707 0
    endloop
  endfacet
  facet normal 0.233213 0.972426 0
    outer loop
      vertex -45.596 5.707 0
      vertex -44.908 5.542 4
      vertex -44.908 5.542 0
    endloop
  endfacet
  facet normal 0.263477 0.964666 0
    outer loop
      vertex -46.277 5.893 4
      vertex -45.596 5.707 4
      vertex -46.277 5.893 0
    endloop
  endfacet
  facet normal 0.263477 0.964666 0
    outer loop
      vertex -46.277 5.893 0
      vertex -45.596 5.707 4
      vertex -45.596 5.707 0
    endloop
  endfacet
  facet normal 0.294086 0.955779 0
    outer loop
      vertex -46.953 6.101 4
      vertex -46.277 5.893 4
      vertex -46.953 6.101 0
    endloop
  endfacet
  facet normal 0.294086 0.955779 0
    outer loop
      vertex -46.953 6.101 0
      vertex -46.277 5.893 4
      vertex -46.277 5.893 0
    endloop
  endfacet
  facet normal 0.323854 0.946107 0
    outer loop
      vertex -47.622 6.33 4
      vertex -46.953 6.101 4
      vertex -47.622 6.33 0
    endloop
  endfacet
  facet normal 0.323854 0.946107 0
    outer loop
      vertex -47.622 6.33 0
      vertex -46.953 6.101 4
      vertex -46.953 6.101 0
    endloop
  endfacet
  facet normal 0.353758 0.935337 0
    outer loop
      vertex -48.283 6.58 4
      vertex -47.622 6.33 4
      vertex -48.283 6.58 0
    endloop
  endfacet
  facet normal 0.353758 0.935337 0
    outer loop
      vertex -48.283 6.58 0
      vertex -47.622 6.33 4
      vertex -47.622 6.33 0
    endloop
  endfacet
  facet normal 0.383309 0.92362 0
    outer loop
      vertex -48.936 6.851 4
      vertex -48.283 6.58 4
      vertex -48.936 6.851 0
    endloop
  endfacet
  facet normal 0.383309 0.92362 0
    outer loop
      vertex -48.936 6.851 0
      vertex -48.283 6.58 4
      vertex -48.283 6.58 0
    endloop
  endfacet
  facet normal 0.4106 0.911816 0
    outer loop
      vertex -49.58 7.141 4
      vertex -48.936 6.851 4
      vertex -49.58 7.141 0
    endloop
  endfacet
  facet normal 0.4106 0.911816 0
    outer loop
      vertex -49.58 7.141 0
      vertex -48.936 6.851 4
      vertex -48.936 6.851 0
    endloop
  endfacet
  facet normal 0.439844 0.898074 0
    outer loop
      vertex -50.215 7.452 4
      vertex -49.58 7.141 4
      vertex -50.215 7.452 0
    endloop
  endfacet
  facet normal 0.439844 0.898074 0
    outer loop
      vertex -50.215 7.452 0
      vertex -49.58 7.141 4
      vertex -49.58 7.141 0
    endloop
  endfacet
  facet normal 0.468603 0.883409 0
    outer loop
      vertex -50.839 7.783 4
      vertex -50.215 7.452 4
      vertex -50.839 7.783 0
    endloop
  endfacet
  facet normal 0.468603 0.883409 0
    outer loop
      vertex -50.839 7.783 0
      vertex -50.215 7.452 4
      vertex -50.215 7.452 0
    endloop
  endfacet
  facet normal 0.495224 0.868765 0
    outer loop
      vertex -51.453 8.133 4
      vertex -50.839 7.783 4
      vertex -51.453 8.133 0
    endloop
  endfacet
  facet normal 0.495224 0.868765 0
    outer loop
      vertex -51.453 8.133 0
      vertex -50.839 7.783 4
      vertex -50.839 7.783 0
    endloop
  endfacet
  facet normal 0.522993 0.852337 0
    outer loop
      vertex -52.056 8.503 4
      vertex -51.453 8.133 4
      vertex -52.056 8.503 0
    endloop
  endfacet
  facet normal 0.522993 0.852337 0
    outer loop
      vertex -52.056 8.503 0
      vertex -51.453 8.133 4
      vertex -51.453 8.133 0
    endloop
  endfacet
  facet normal 0.548811 0.835947 0
    outer loop
      vertex -52.647 8.891 4
      vertex -52.056 8.503 4
      vertex -52.647 8.891 0
    endloop
  endfacet
  facet normal 0.548811 0.835947 0
    outer loop
      vertex -52.647 8.891 0
      vertex -52.056 8.503 4
      vertex -52.056 8.503 0
    endloop
  endfacet
  facet normal 0.574792 0.8183 0
    outer loop
      vertex -53.225 9.297 4
      vertex -52.647 8.891 4
      vertex -53.225 9.297 0
    endloop
  endfacet
  facet normal 0.574792 0.8183 0
    outer loop
      vertex -53.225 9.297 0
      vertex -52.647 8.891 4
      vertex -52.647 8.891 0
    endloop
  endfacet
  facet normal 0.601131 0.799151 0
    outer loop
      vertex -53.79 9.722 4
      vertex -53.225 9.297 4
      vertex -53.79 9.722 0
    endloop
  endfacet
  facet normal 0.601131 0.799151 0
    outer loop
      vertex -53.79 9.722 0
      vertex -53.225 9.297 4
      vertex -53.225 9.297 0
    endloop
  endfacet
  facet normal 0.624147 0.781307 0
    outer loop
      vertex -54.138 10 4
      vertex -53.79 9.722 4
      vertex -54.138 10 0
    endloop
  endfacet
  facet normal 0.624147 0.781307 0
    outer loop
      vertex -54.138 10 0
      vertex -53.79 9.722 4
      vertex -53.79 9.722 0
    endloop
  endfacet
  facet normal 0 1 0
    outer loop
      vertex -77.5 10 4
      vertex -54.138 10 4
      vertex -77.5 10 0
    endloop
  endfacet
  facet normal 0 1 0
    outer loop
      vertex -77.5 10 0
      vertex -54.138 10 4
      vertex -54.138 10 0
    endloop
  endfacet
endsolid OpenSCAD_Model
