solid OpenSCAD_Model
  facet normal 0.338778 -0.940866 0
    outer loop
      vertex -56.475 -10 0
      vertex -52.473 -8.559 0
      vertex -52.473 -8.559 4
    endloop
  endfacet
  facet normal 0.338778 -0.940866 0
    outer loop
      vertex -56.475 -10 4
      vertex -56.475 -10 0
      vertex -52.473 -8.559 4
    endloop
  endfacet
  facet normal 0 0 -1
    outer loop
      vertex -77.5 10 0
      vertex -56.475 10 0
      vertex -77.5 -10 0
    endloop
  endfacet
  facet normal 0 0 -1
    outer loop
      vertex -77.5 -10 0
      vertex -56.475 10 0
      vertex -52.473 8.559 0
    endloop
  endfacet
  facet normal 0 0 -1
    outer loop
      vertex -77.5 -10 0
      vertex -52.473 8.559 0
      vertex -48.086 7.285 0
    endloop
  endfacet
  facet normal 0 0 -1
    outer loop
      vertex -48.086 7.285 0
      vertex -43.627 6.288 0
      vertex -77.5 -10 0
    endloop
  endfacet
  facet normal 0 0 -1
    outer loop
      vertex -43.627 6.288 0
      vertex -39.115 5.573 0
      vertex -77.5 -10 0
    endloop
  endfacet
  facet normal 0 0 -1
    outer loop
      vertex -39.115 5.573 0
      vertex -34.566 5.144 0
      vertex -77.5 -10 0
    endloop
  endfacet
  facet normal 0 0 -1
    outer loop
      vertex -34.566 5.144 0
      vertex -30 5 0
      vertex -77.5 -10 0
    endloop
  endfacet
  facet normal 0 0 -1
    outer loop
      vertex -30 5 0
      vertex 30 5 0
      vertex -77.5 -10 0
    endloop
  endfacet
  facet normal 0 0 -1
    outer loop
      vertex 30 5 0
      vertex 34.566 5.144 0
      vertex -77.5 -10 0
    endloop
  endfacet
  facet normal 0 0 -1
    outer loop
      vertex 34.566 5.144 0
      vertex 39.115 5.573 0
      vertex -77.5 -10 0
    endloop
  endfacet
  facet normal 0 0 -1
    outer loop
      vertex 39.115 5.573 0
      vertex 77.5 10 0
      vertex -77.5 -10 0
    endloop
  endfacet
  facet normal 0 0 -1
    outer loop
      vertex 43.627 6.288 0
      vertex 77.5 10 0
      vertex 39.115 5.573 0
    endloop
  endfacet
  facet normal 0 0 -1
    outer loop
      vertex 48.086 7.285 0
      vertex 77.5 10 0
      vertex 43.627 6.288 0
    endloop
  endfacet
  facet normal 0 0 -1
    outer loop
      vertex 52.473 8.559 0
      vertex 56.475 10 0
      vertex 77.5 10 0
    endloop
  endfacet
  facet normal 0 0 -1
    outer loop
      vertex 52.473 8.559 0
      vertex 77.5 10 0
      vertex 48.086 7.285 0
    endloop
  endfacet
  facet normal 0 0 -1
    outer loop
      vertex 56.475 -10 0
      vertex 77.5 10 0
      vertex 77.5 -10 0
    endloop
  endfacet
  facet normal 0 0 -1
    outer loop
      vertex 52.473 -8.559 0
      vertex 77.5 10 0
      vertex 56.475 -10 0
    endloop
  endfacet
  facet normal 0 0 -1
    outer loop
      vertex 48.086 -7.285 0
      vertex 77.5 10 0
      vertex 52.473 -8.559 0
    endloop
  endfacet
  facet normal 0 0 -1
    outer loop
      vertex 43.627 -6.288 0
      vertex 77.5 10 0
      vertex 48.086 -7.285 0
    endloop
  endfacet
  facet normal 0 0 -1
    outer loop
      vertex 39.115 -5.573 0
      vertex 77.5 10 0
      vertex 43.627 -6.288 0
    endloop
  endfacet
  facet normal 0 0 -1
    outer loop
      vertex 34.566 -5.144 0
      vertex 77.5 10 0
      vertex 39.115 -5.573 0
    endloop
  endfacet
  facet normal 0 0 -1
    outer loop
      vertex 30 -5 0
      vertex 77.5 10 0
      vertex 34.566 -5.144 0
    endloop
  endfacet
  facet normal 0 0 -1
    outer loop
      vertex -30 -5 0
      vertex 77.5 10 0
      vertex 30 -5 0
    endloop
  endfacet
  facet normal 0 0 -1
    outer loop
      vertex -34.566 -5.144 0
      vertex 77.5 10 0
      vertex -30 -5 0
    endloop
  endfacet
  facet normal 0 0 -1
    outer loop
      vertex -39.115 -5.573 0
      vertex 77.5 10 0
      vertex -34.566 -5.144 0
    endloop
  endfacet
  facet normal 0 0 -1
    outer loop
      vertex -77.5 -10 0
      vertex 77.5 10 0
      vertex -39.115 -5.573 0
    endloop
  endfacet
  facet normal 0 0 -1
    outer loop
      vertex -48.086 -7.285 0
      vertex -77.5 -10 0
      vertex -43.627 -6.288 0
    endloop
  endfacet
  facet normal 0 0 -1
    outer loop
      vertex -56.475 -10 0
      vertex -77.5 -10 0
      vertex -52.473 -8.559 0
    endloop
  endfacet
  facet normal 0 0 -1
    outer loop
      vertex -77.5 -10 0
      vertex -48.086 -7.285 0
      vertex -52.473 -8.559 0
    endloop
  endfacet
  facet normal 0 0 -1
    outer loop
      vertex -43.627 -6.288 0
      vertex -77.5 -10 0
      vertex -39.115 -5.573 0
    endloop
  endfacet
  facet normal 0 -1 0
    outer loop
      vertex -77.5 -10 0
      vertex -56.475 -10 0
      vertex -56.475 -10 4
    endloop
  endfacet
  facet normal 0 -1 0
    outer loop
      vertex -77.5 -10 4
      vertex -77.5 -10 0
      vertex -56.475 -10 4
    endloop
  endfacet
  facet normal 0 0 1
    outer loop
      vertex -43.627 -6.288 4
      vertex -39.115 -5.573 4
      vertex -77.5 -10 4
    endloop
  endfacet
  facet normal 0 0 1
    outer loop
      vertex -77.5 -10 4
      vertex -56.475 -10 4
      vertex -52.473 -8.559 4
    endloop
  endfacet
  facet normal 0 0 1
    outer loop
      vertex -39.115 -5.573 4
      vertex 77.5 10 4
      vertex -77.5 -10 4
    endloop
  endfacet
  facet normal 0 0 1
    outer loop
      vertex -48.086 -7.285 4
      vertex -77.5 -10 4
      vertex -52.473 -8.559 4
    endloop
  endfacet
  facet normal 0 0 1
    outer loop
      vertex -48.086 -7.285 4
      vertex -43.627 -6.288 4
      vertex -77.5 -10 4
    endloop
  endfacet
  facet normal 0 0 1
    outer loop
      vertex -34.566 -5.144 4
      vertex 77.5 10 4
      vertex -39.115 -5.573 4
    endloop
  endfacet
  facet normal 0 0 1
    outer loop
      vertex -30 -5 4
      vertex 77.5 10 4
      vertex -34.566 -5.144 4
    endloop
  endfacet
  facet normal 0 0 1
    outer loop
      vertex 30 -5 4
      vertex 77.5 10 4
      vertex -30 -5 4
    endloop
  endfacet
  facet normal 0 0 1
    outer loop
      vertex 34.566 -5.144 4
      vertex 77.5 10 4
      vertex 30 -5 4
    endloop
  endfacet
  facet normal 0 0 1
    outer loop
      vertex 39.115 -5.573 4
      vertex 77.5 10 4
      vertex 34.566 -5.144 4
    endloop
  endfacet
  facet normal 0 0 1
    outer loop
      vertex 43.627 -6.288 4
      vertex 77.5 -10 4
      vertex 39.115 -5.573 4
    endloop
  endfacet
  facet normal 0 0 1
    outer loop
      vertex 48.086 -7.285 4
      vertex 77.5 -10 4
      vertex 43.627 -6.288 4
    endloop
  endfacet
  facet normal 0 0 1
    outer loop
      vertex 52.473 -8.559 4
      vertex 77.5 -10 4
      vertex 48.086 -7.285 4
    endloop
  endfacet
  facet normal 0 0 1
    outer loop
      vertex -30 5 4
      vertex -34.566 5.144 4
      vertex -77.5 -10 4
    endloop
  endfacet
  facet normal 0 0 1
    outer loop
      vertex 56.475 -10 4
      vertex 77.5 -10 4
      vertex 52.473 -8.559 4
    endloop
  endfacet
  facet normal 0 0 1
    outer loop
      vertex 77.5 -10 4
      vertex 77.5 10 4
      vertex 39.115 -5.573 4
    endloop
  endfacet
  facet normal 0 0 1
    outer loop
      vertex 77.5 10 4
      vertex 56.475 10 4
      vertex 52.473 8.559 4
    endloop
  endfacet
  facet normal 0 0 1
    outer loop
      vertex 77.5 10 4
      vertex 52.473 8.559 4
      vertex 48.086 7.285 4
    endloop
  endfacet
  facet normal 0 0 1
    outer loop
      vertex 34.566 5.144 4
      vertex 30 5 4
      vertex -77.5 -10 4
    endloop
  endfacet
  facet normal 0 0 1
    outer loop
      vertex 77.5 10 4
      vertex 48.086 7.285 4
      vertex 43.627 6.288 4
    endloop
  endfacet
  facet normal 0 0 1
    outer loop
      vertex 77.5 10 4
      vertex 39.115 5.573 4
      vertex -77.5 -10 4
    endloop
  endfacet
  facet normal 0 0 1
    outer loop
      vertex 77.5 10 4
      vertex 43.627 6.288 4
      vertex 39.115 5.573 4
    endloop
  endfacet
  facet normal 0 0 1
    outer loop
      vertex -34.566 5.144 4
      vertex -39.115 5.573 4
      vertex -77.5 -10 4
    endloop
  endfacet
  facet normal 0 0 1
    outer loop
      vertex -39.115 5.573 4
      vertex -43.627 6.288 4
      vertex -77.5 -10 4
    endloop
  endfacet
  facet normal 0 0 1
    outer loop
      vertex -43.627 6.288 4
      vertex -48.086 7.285 4
      vertex -77.5 -10 4
    endloop
  endfacet
  facet normal 0 0 1
    outer loop
      vertex -48.086 7.285 4
      vertex -52.473 8.559 4
      vertex -77.5 -10 4
    endloop
  endfacet
  facet normal 0 0 1
    outer loop
      vertex -52.473 8.559 4
      vertex -56.475 10 4
      vertex -77.5 -10 4
    endloop
  endfacet
  facet normal 0 0 1
    outer loop
      vertex -56.475 10 4
      vertex -77.5 10 4
      vertex -77.5 -10 4
    endloop
  endfacet
  facet normal 0 0 1
    outer loop
      vertex 39.115 5.573 4
      vertex 34.566 5.144 4
      vertex -77.5 -10 4
    endloop
  endfacet
  facet normal 0 0 1
    outer loop
      vertex 30 5 4
      vertex -30 5 4
      vertex -77.5 -10 4
    endloop
  endfacet
  facet normal 0.278882 -0.960325 0
    outer loop
      vertex -52.473 -8.559 0
      vertex -48.086 -7.285 0
      vertex -48.086 -7.285 4
    endloop
  endfacet
  facet normal 0.278882 -0.960325 0
    outer loop
      vertex -52.473 -8.559 4
      vertex -52.473 -8.559 0
      vertex -48.086 -7.285 4
    endloop
  endfacet
  facet normal -1 0 0
    outer loop
      vertex -77.5 -10 4
      vertex -77.5 10 4
      vertex -77.5 -10 0
    endloop
  endfacet
  facet normal -1 0 0
    outer loop
      vertex -77.5 -10 0
      vertex -77.5 10 4
      vertex -77.5 10 0
    endloop
  endfacet
  facet normal 0.218205 -0.975903 0
    outer loop
      vertex -48.086 -7.285 0
      vertex -43.627 -6.288 0
      vertex -43.627 -6.288 4
    endloop
  endfacet
  facet normal 0.218205 -0.975903 0
    outer loop
      vertex -48.086 -7.285 4
      vertex -48.086 -7.285 0
      vertex -43.627 -6.288 4
    endloop
  endfacet
  facet normal 0.156513 -0.987676 0
    outer loop
      vertex -43.627 -6.288 0
      vertex -39.115 -5.573 0
      vertex -39.115 -5.573 4
    endloop
  endfacet
  facet normal 0.156513 -0.987676 0
    outer loop
      vertex -43.627 -6.288 4
      vertex -43.627 -6.288 0
      vertex -39.115 -5.573 4
    endloop
  endfacet
  facet normal 0.0938899 -0.995583 0
    outer loop
      vertex -39.115 -5.573 0
      vertex -34.566 -5.144 0
      vertex -34.566 -5.144 4
    endloop
  endfacet
  facet normal 0.0938899 -0.995583 0
    outer loop
      vertex -39.115 -5.573 4
      vertex -39.115 -5.573 0
      vertex -34.566 -5.144 4
    endloop
  endfacet
  facet normal 0.0315218 -0.999503 0
    outer loop
      vertex -34.566 -5.144 0
      vertex -30 -5 0
      vertex -30 -5 4
    endloop
  endfacet
  facet normal 0.0315218 -0.999503 0
    outer loop
      vertex -34.566 -5.144 4
      vertex -34.566 -5.144 0
      vertex -30 -5 4
    endloop
  endfacet
  facet normal 0 -1 0
    outer loop
      vertex -30 -5 0
      vertex 30 -5 0
      vertex 30 -5 4
    endloop
  endfacet
  facet normal 0 -1 0
    outer loop
      vertex -30 -5 4
      vertex -30 -5 0
      vertex 30 -5 4
    endloop
  endfacet
  facet normal -0.0315218 -0.999503 0
    outer loop
      vertex 30 -5 0
      vertex 34.566 -5.144 0
      vertex 34.566 -5.144 4
    endloop
  endfacet
  facet normal -0.0315218 -0.999503 0
    outer loop
      vertex 30 -5 4
      vertex 30 -5 0
      vertex 34.566 -5.144 4
    endloop
  endfacet
  facet normal -0.0938899 -0.995583 0
    outer loop
      vertex 34.566 -5.144 0
      vertex 39.115 -5.573 0
      vertex 39.115 -5.573 4
    endloop
  endfacet
  facet normal -0.0938899 -0.995583 0
    outer loop
      vertex 34.566 -5.144 4
      vertex 34.566 -5.144 0
      vertex 39.115 -5.573 4
    endloop
  endfacet
  facet normal -0.156513 -0.987676 0
    outer loop
      vertex 39.115 -5.573 0
      vertex 43.627 -6.288 0
      vertex 43.627 -6.288 4
    endloop
  endfacet
  facet normal -0.156513 -0.987676 0
    outer loop
      vertex 39.115 -5.573 4
      vertex 39.115 -5.573 0
      vertex 43.627 -6.288 4
    endloop
  endfacet
  facet normal -0.218205 -0.975903 0
    outer loop
      vertex 43.627 -6.288 0
      vertex 48.086 -7.285 0
      vertex 48.086 -7.285 4
    endloop
  endfacet
  facet normal -0.218205 -0.975903 0
    outer loop
      vertex 43.627 -6.288 4
      vertex 43.627 -6.288 0
      vertex 48.086 -7.285 4
    endloop
  endfacet
  facet normal -0.278882 -0.960325 0
    outer loop
      vertex 48.086 -7.285 0
      vertex 52.473 -8.559 0
      vertex 52.473 -8.559 4
    endloop
  endfacet
  facet normal -0.278882 -0.960325 0
    outer loop
      vertex 48.086 -7.285 4
      vertex 48.086 -7.285 0
      vertex 52.473 -8.559 4
    endloop
  endfacet
  facet normal -0.338778 -0.940866 0
    outer loop
      vertex 52.473 -8.559 0
      vertex 56.475 -10 0
      vertex 56.475 -10 4
    endloop
  endfacet
  facet normal -0.338778 -0.940866 0
    outer loop
      vertex 52.473 -8.559 4
      vertex 52.473 -8.559 0
      vertex 56.475 -10 4
    endloop
  endfacet
  facet normal 0 -1 0
    outer loop
      vertex 56.475 -10 0
      vertex 77.5 -10 0
      vertex 77.5 -10 4
    endloop
  endfacet
  facet normal 0 -1 0
    outer loop
      vertex 56.475 -10 4
      vertex 56.475 -10 0
      vertex 77.5 -10 4
    endloop
  endfacet
  facet normal 1 0 0
    outer loop
      vertex 77.5 -10 0
      vertex 77.5 10 0
      vertex 77.5 10 4
    endloop
  endfacet
  facet normal 1 0 0
    outer loop
      vertex 77.5 -10 4
      vertex 77.5 -10 0
      vertex 77.5 10 4
    endloop
  endfacet
  facet normal 0 1 0
    outer loop
      vertex 56.475 10 4
      vertex 77.5 10 4
      vertex 56.475 10 0
    endloop
  endfacet
  facet normal 0 1 0
    outer loop
      vertex 56.475 10 0
      vertex 77.5 10 4
      vertex 77.5 10 0
    endloop
  endfacet
  facet normal -0.338778 0.940866 0
    outer loop
      vertex 52.473 8.559 4
      vertex 56.475 10 4
      vertex 52.473 8.559 0
    endloop
  endfacet
  facet normal -0.338778 0.940866 0
    outer loop
      vertex 52.473 8.559 0
      vertex 56.475 10 4
      vertex 56.475 10 0
    endloop
  endfacet
  facet normal -0.278882 0.960325 0
    outer loop
      vertex 48.086 7.285 4
      vertex 52.473 8.559 4
      vertex 48.086 7.285 0
    endloop
  endfacet
  facet normal -0.278882 0.960325 0
    outer loop
      vertex 48.086 7.285 0
      vertex 52.473 8.559 4
      vertex 52.473 8.559 0
    endloop
  endfacet
  facet normal -0.218205 0.975903 0
    outer loop
      vertex 43.627 6.288 4
      vertex 48.086 7.285 4
      vertex 43.627 6.288 0
    endloop
  endfacet
  facet normal -0.218205 0.975903 0
    outer loop
      vertex 43.627 6.288 0
      vertex 48.086 7.285 4
      vertex 48.086 7.285 0
    endloop
  endfacet
  facet normal -0.156513 0.987676 0
    outer loop
      vertex 39.115 5.573 4
      vertex 43.627 6.288 4
      vertex 39.115 5.573 0
    endloop
  endfacet
  facet normal -0.156513 0.987676 0
    outer loop
      vertex 39.115 5.573 0
      vertex 43.627 6.288 4
      vertex 43.627 6.288 0
    endloop
  endfacet
  facet normal -0.0938899 0.995583 0
    outer loop
      vertex 34.566 5.144 4
      vertex 39.115 5.573 4
      vertex 34.566 5.144 0
    endloop
  endfacet
  facet normal -0.0938899 0.995583 0
    outer loop
      vertex 34.566 5.144 0
      vertex 39.115 5.573 4
      vertex 39.115 5.573 0
    endloop
  endfacet
  facet normal -0.0315218 0.999503 0
    outer loop
      vertex 30 5 4
      vertex 34.566 5.144 4
      vertex 30 5 0
    endloop
  endfacet
  facet normal -0.0315218 0.999503 0
    outer loop
      vertex 30 5 0
      vertex 34.566 5.144 4
      vertex 34.566 5.144 0
    endloop
  endfacet
  facet normal 0 1 0
    outer loop
      vertex -30 5 4
      vertex 30 5 4
      vertex -30 5 0
    endloop
  endfacet
  facet normal 0 1 0
    outer loop
      vertex -30 5 0
      vertex 30 5 4
      vertex 30 5 0
    endloop
  endfacet
  facet normal 0.0315218 0.999503 0
    outer loop
      vertex -34.566 5.144 4
      vertex -30 5 4
      vertex -34.566 5.144 0
    endloop
  endfacet
  facet normal 0.0315218 0.999503 0
    outer loop
      vertex -34.566 5.144 0
      vertex -30 5 4
      vertex -30 5 0
    endloop
  endfacet
  facet normal 0.0938899 0.995583 0
    outer loop
      vertex -39.115 5.573 4
      vertex -34.566 5.144 4
      vertex -39.115 5.573 0
    endloop
  endfacet
  facet normal 0.0938899 0.995583 0
    outer loop
      vertex -39.115 5.573 0
      vertex -34.566 5.144 4
      vertex -34.566 5.144 0
    endloop
  endfacet
  facet normal 0.156513 0.987676 0
    outer loop
      vertex -43.627 6.288 4
      vertex -39.115 5.573 4
      vertex -43.627 6.288 0
    endloop
  endfacet
  facet normal 0.156513 0.987676 0
    outer loop
      vertex -43.627 6.288 0
      vertex -39.115 5.573 4
      vertex -39.115 5.573 0
    endloop
  endfacet
  facet normal 0.218205 0.975903 0
    outer loop
      vertex -48.086 7.285 4
      vertex -43.627 6.288 4
      vertex -48.086 7.285 0
    endloop
  endfacet
  facet normal 0.218205 0.975903 0
    outer loop
      vertex -48.086 7.285 0
      vertex -43.627 6.288 4
      vertex -43.627 6.288 0
    endloop
  endfacet
  facet normal 0.278882 0.960325 0
    outer loop
      vertex -52.473 8.559 4
      vertex -48.086 7.285 4
      vertex -52.473 8.559 0
    endloop
  endfacet
  facet normal 0.278882 0.960325 0
    outer loop
      vertex -52.473 8.559 0
      vertex -48.086 7.285 4
      vertex -48.086 7.285 0
    endloop
  endfacet
  facet normal 0.338778 0.940866 0
    outer loop
      vertex -56.475 10 4
      vertex -52.473 8.559 4
      vertex -56.475 10 0
    endloop
  endfacet
  facet normal 0.338778 0.940866 0
    outer loop
      vertex -56.475 10 0
      vertex -52.473 8.559 4
      vertex -52.473 8.559 0
    endloop
  endfacet
  facet normal 0 1 0
    outer loop
      vertex -77.5 10 4
      vertex -56.475 10 4
      vertex -77.5 10 0
    endloop
  endfacet
  facet normal 0 1 0
    outer loop
      vertex -77.5 10 0
      vertex -56.475 10 4
      vertex -56.475 10 0
    endloop
  endfacet
endsolid OpenSCAD_Model
