solid OpenSCAD_Model
  facet normal 0 -1 0
    outer loop
      vertex -38.75 -5 0
      vertex -28.2375 -5 0
      vertex -28.2375 -5 2
    endloop
  endfacet
  facet normal 0 -1 0
    outer loop
      vertex -38.75 -5 2
      vertex -38.75 -5 0
      vertex -28.2375 -5 2
    endloop
  endfacet
  facet normal 0.338778 -0.940866 0
    outer loop
      vertex -28.2375 -5 0
      vertex -26.2365 -4.2795 0
      vertex -26.2365 -4.2795 2
    endloop
  endfacet
  facet normal 0.338778 -0.940866 0
    outer loop
      vertex -28.2375 -5 2
      vertex -28.2375 -5 0
      vertex -26.2365 -4.2795 2
    endloop
  endfacet
  facet normal 0 0 -1
    outer loop
      vertex -38.75 5 0
      vertex -28.2375 5 0
      vertex -38.75 -5 0
    endloop
  endfacet
  facet normal 0 0 -1
    outer loop
      vertex -38.75 -5 0
      vertex -28.2375 5 0
      vertex -26.2365 4.2795 0
    endloop
  endfacet
  facet normal 0 0 -1
    outer loop
      vertex -38.75 -5 0
      vertex -26.2365 4.2795 0
      vertex -24.043 3.6425 0
    endloop
  endfacet
  facet normal 0 0 -1
    outer loop
      vertex -24.043 3.6425 0
      vertex -21.8135 3.144 0
      vertex -38.75 -5 0
    endloop
  endfacet
  facet normal 0 0 -1
    outer loop
      vertex -21.8135 3.144 0
      vertex -19.5575 2.7865 0
      vertex -38.75 -5 0
    endloop
  endfacet
  facet normal 0 0 -1
    outer loop
      vertex -19.5575 2.7865 0
      vertex -17.283 2.572 0
      vertex -38.75 -5 0
    endloop
  endfacet
  facet normal 0 0 -1
    outer loop
      vertex -17.283 2.572 0
      vertex -15 2.5 0
      vertex -38.75 -5 0
    endloop
  endfacet
  facet normal 0 0 -1
    outer loop
      vertex -15 2.5 0
      vertex 15 2.5 0
      vertex -38.75 -5 0
    endloop
  endfacet
  facet normal 0 0 -1
    outer loop
      vertex 15 2.5 0
      vertex 17.283 2.572 0
      vertex -38.75 -5 0
    endloop
  endfacet
  facet normal 0 0 -1
    outer loop
      vertex 17.283 2.572 0
      vertex 19.5575 2.7865 0
      vertex -38.75 -5 0
    endloop
  endfacet
  facet normal 0 0 -1
    outer loop
      vertex 19.5575 2.7865 0
      vertex 38.75 5 0
      vertex -38.75 -5 0
    endloop
  endfacet
  facet normal 0 0 -1
    outer loop
      vertex 21.8135 3.144 0
      vertex 38.75 5 0
      vertex 19.5575 2.7865 0
    endloop
  endfacet
  facet normal 0 0 -1
    outer loop
      vertex 24.043 3.6425 0
      vertex 38.75 5 0
      vertex 21.8135 3.144 0
    endloop
  endfacet
  facet normal 0 0 -1
    outer loop
      vertex 26.2365 4.2795 0
      vertex 28.2375 5 0
      vertex 38.75 5 0
    endloop
  endfacet
  facet normal 0 0 -1
    outer loop
      vertex 26.2365 4.2795 0
      vertex 38.75 5 0
      vertex 24.043 3.6425 0
    endloop
  endfacet
  facet normal 0 0 -1
    outer loop
      vertex 28.2375 -5 0
      vertex 38.75 5 0
      vertex 38.75 -5 0
    endloop
  endfacet
  facet normal 0 0 -1
    outer loop
      vertex 26.2365 -4.2795 0
      vertex 38.75 5 0
      vertex 28.2375 -5 0
    endloop
  endfacet
  facet normal 0 0 -1
    outer loop
      vertex 24.043 -3.6425 0
      vertex 38.75 5 0
      vertex 26.2365 -4.2795 0
    endloop
  endfacet
  facet normal 0 0 -1
    outer loop
      vertex 21.8135 -3.144 0
      vertex 38.75 5 0
      vertex 24.043 -3.6425 0
    endloop
  endfacet
  facet normal 0 0 -1
    outer loop
      vertex 19.5575 -2.7865 0
      vertex 38.75 5 0
      vertex 21.8135 -3.144 0
    endloop
  endfacet
  facet normal 0 0 -1
    outer loop
      vertex 17.283 -2.572 0
      vertex 38.75 5 0
      vertex 19.5575 -2.7865 0
    endloop
  endfacet
  facet normal 0 0 -1
    outer loop
      vertex 15 -2.5 0
      vertex 38.75 5 0
      vertex 17.283 -2.572 0
    endloop
  endfacet
  facet normal 0 0 -1
    outer loop
      vertex -15 -2.5 0
      vertex 38.75 5 0
      vertex 15 -2.5 0
    endloop
  endfacet
  facet normal 0 0 -1
    outer loop
      vertex -17.283 -2.572 0
      vertex 38.75 5 0
      vertex -15 -2.5 0
    endloop
  endfacet
  facet normal 0 0 -1
    outer loop
      vertex -19.5575 -2.7865 0
      vertex 38.75 5 0
      vertex -17.283 -2.572 0
    endloop
  endfacet
  facet normal 0 0 -1
    outer loop
      vertex -38.75 -5 0
      vertex 38.75 5 0
      vertex -19.5575 -2.7865 0
    endloop
  endfacet
  facet normal 0 0 -1
    outer loop
      vertex -24.043 -3.6425 0
      vertex -38.75 -5 0
      vertex -21.8135 -3.144 0
    endloop
  endfacet
  facet normal 0 0 -1
    outer loop
      vertex -28.2375 -5 0
      vertex -38.75 -5 0
      vertex -26.2365 -4.2795 0
    endloop
  endfacet
  facet normal 0 0 -1
    outer loop
      vertex -38.75 -5 0
      vertex -24.043 -3.6425 0
      vertex -26.2365 -4.2795 0
    endloop
  endfacet
  facet normal 0 0 -1
    outer loop
      vertex -21.8135 -3.144 0
      vertex -38.75 -5 0
      vertex -19.5575 -2.7865 0
    endloop
  endfacet
  facet normal -1 0 0
    outer loop
      vertex -38.75 -5 2
      vertex -38.75 5 2
      vertex -38.75 -5 0
    endloop
  endfacet
  facet normal -1 0 0
    outer loop
      vertex -38.75 -5 0
      vertex -38.75 5 2
      vertex -38.75 5 0
    endloop
  endfacet
  facet normal 0 0 1
    outer loop
      vertex -21.8135 -3.144 2
      vertex -19.5575 -2.7865 2
      vertex -38.75 -5 2
    endloop
  endfacet
  facet normal 0 0 1
    outer loop
      vertex -38.75 -5 2
      vertex -28.2375 -5 2
      vertex -26.2365 -4.2795 2
    endloop
  endfacet
  facet normal 0 0 1
    outer loop
      vertex -19.5575 -2.7865 2
      vertex 38.75 5 2
      vertex -38.75 -5 2
    endloop
  endfacet
  facet normal 0 0 1
    outer loop
      vertex -24.043 -3.6425 2
      vertex -38.75 -5 2
      vertex -26.2365 -4.2795 2
    endloop
  endfacet
  facet normal 0 0 1
    outer loop
      vertex -24.043 -3.6425 2
      vertex -21.8135 -3.144 2
      vertex -38.75 -5 2
    endloop
  endfacet
  facet normal 0 0 1
    outer loop
      vertex -17.283 -2.572 2
      vertex 38.75 5 2
      vertex -19.5575 -2.7865 2
    endloop
  endfacet
  facet normal 0 0 1
    outer loop
      vertex -15 -2.5 2
      vertex 38.75 5 2
      vertex -17.283 -2.572 2
    endloop
  endfacet
  facet normal 0 0 1
    outer loop
      vertex 15 -2.5 2
      vertex 38.75 5 2
      vertex -15 -2.5 2
    endloop
  endfacet
  facet normal 0 0 1
    outer loop
      vertex 17.283 -2.572 2
      vertex 38.75 5 2
      vertex 15 -2.5 2
    endloop
  endfacet
  facet normal 0 0 1
    outer loop
      vertex 19.5575 -2.7865 2
      vertex 38.75 5 2
      vertex 17.283 -2.572 2
    endloop
  endfacet
  facet normal 0 0 1
    outer loop
      vertex 21.8135 -3.144 2
      vertex 38.75 -5 2
      vertex 19.5575 -2.7865 2
    endloop
  endfacet
  facet normal 0 0 1
    outer loop
      vertex 24.043 -3.6425 2
      vertex 38.75 -5 2
      vertex 21.8135 -3.144 2
    endloop
  endfacet
  facet normal 0 0 1
    outer loop
      vertex 26.2365 -4.2795 2
      vertex 38.75 -5 2
      vertex 24.043 -3.6425 2
    endloop
  endfacet
  facet normal 0 0 1
    outer loop
      vertex -15 2.5 2
      vertex -17.283 2.572 2
      vertex -38.75 -5 2
    endloop
  endfacet
  facet normal 0 0 1
    outer loop
      vertex 28.2375 -5 2
      vertex 38.75 -5 2
      vertex 26.2365 -4.2795 2
    endloop
  endfacet
  facet normal 0 0 1
    outer loop
      vertex 38.75 -5 2
      vertex 38.75 5 2
      vertex 19.5575 -2.7865 2
    endloop
  endfacet
  facet normal 0 0 1
    outer loop
      vertex 38.75 5 2
      vertex 28.2375 5 2
      vertex 26.2365 4.2795 2
    endloop
  endfacet
  facet normal 0 0 1
    outer loop
      vertex 38.75 5 2
      vertex 26.2365 4.2795 2
      vertex 24.043 3.6425 2
    endloop
  endfacet
  facet normal 0 0 1
    outer loop
      vertex 17.283 2.572 2
      vertex 15 2.5 2
      vertex -38.75 -5 2
    endloop
  endfacet
  facet normal 0 0 1
    outer loop
      vertex 38.75 5 2
      vertex 24.043 3.6425 2
      vertex 21.8135 3.144 2
    endloop
  endfacet
  facet normal 0 0 1
    outer loop
      vertex 38.75 5 2
      vertex 19.5575 2.7865 2
      vertex -38.75 -5 2
    endloop
  endfacet
  facet normal 0 0 1
    outer loop
      vertex 38.75 5 2
      vertex 21.8135 3.144 2
      vertex 19.5575 2.7865 2
    endloop
  endfacet
  facet normal 0 0 1
    outer loop
      vertex -17.283 2.572 2
      vertex -19.5575 2.7865 2
      vertex -38.75 -5 2
    endloop
  endfacet
  facet normal 0 0 1
    outer loop
      vertex -19.5575 2.7865 2
      vertex -21.8135 3.144 2
      vertex -38.75 -5 2
    endloop
  endfacet
  facet normal 0 0 1
    outer loop
      vertex -21.8135 3.144 2
      vertex -24.043 3.6425 2
      vertex -38.75 -5 2
    endloop
  endfacet
  facet normal 0 0 1
    outer loop
      vertex -24.043 3.6425 2
      vertex -26.2365 4.2795 2
      vertex -38.75 -5 2
    endloop
  endfacet
  facet normal 0 0 1
    outer loop
      vertex -26.2365 4.2795 2
      vertex -28.2375 5 2
      vertex -38.75 -5 2
    endloop
  endfacet
  facet normal 0 0 1
    outer loop
      vertex -28.2375 5 2
      vertex -38.75 5 2
      vertex -38.75 -5 2
    endloop
  endfacet
  facet normal 0 0 1
    outer loop
      vertex 19.5575 2.7865 2
      vertex 17.283 2.572 2
      vertex -38.75 -5 2
    endloop
  endfacet
  facet normal 0 0 1
    outer loop
      vertex 15 2.5 2
      vertex -15 2.5 2
      vertex -38.75 -5 2
    endloop
  endfacet
  facet normal 0.278882 -0.960325 0
    outer loop
      vertex -26.2365 -4.2795 0
      vertex -24.043 -3.6425 0
      vertex -24.043 -3.6425 2
    endloop
  endfacet
  facet normal 0.278882 -0.960325 0
    outer loop
      vertex -26.2365 -4.2795 2
      vertex -26.2365 -4.2795 0
      vertex -24.043 -3.6425 2
    endloop
  endfacet
  facet normal 0.218205 -0.975903 0
    outer loop
      vertex -24.043 -3.6425 0
      vertex -21.8135 -3.144 0
      vertex -21.8135 -3.144 2
    endloop
  endfacet
  facet normal 0.218205 -0.975903 0
    outer loop
      vertex -24.043 -3.6425 2
      vertex -24.043 -3.6425 0
      vertex -21.8135 -3.144 2
    endloop
  endfacet
  facet normal 0.156513 -0.987676 0
    outer loop
      vertex -21.8135 -3.144 0
      vertex -19.5575 -2.7865 0
      vertex -19.5575 -2.7865 2
    endloop
  endfacet
  facet normal 0.156513 -0.987676 0
    outer loop
      vertex -21.8135 -3.144 2
      vertex -21.8135 -3.144 0
      vertex -19.5575 -2.7865 2
    endloop
  endfacet
  facet normal 0.0938899 -0.995583 0
    outer loop
      vertex -19.5575 -2.7865 0
      vertex -17.283 -2.572 0
      vertex -17.283 -2.572 2
    endloop
  endfacet
  facet normal 0.0938899 -0.995583 0
    outer loop
      vertex -19.5575 -2.7865 2
      vertex -19.5575 -2.7865 0
      vertex -17.283 -2.572 2
    endloop
  endfacet
  facet normal 0.0315218 -0.999503 0
    outer loop
      vertex -17.283 -2.572 0
      vertex -15 -2.5 0
      vertex -15 -2.5 2
    endloop
  endfacet
  facet normal 0.0315218 -0.999503 0
    outer loop
      vertex -17.283 -2.572 2
      vertex -17.283 -2.572 0
      vertex -15 -2.5 2
    endloop
  endfacet
  facet normal 0 -1 0
    outer loop
      vertex -15 -2.5 0
      vertex 15 -2.5 0
      vertex 15 -2.5 2
    endloop
  endfacet
  facet normal 0 -1 0
    outer loop
      vertex -15 -2.5 2
      vertex -15 -2.5 0
      vertex 15 -2.5 2
    endloop
  endfacet
  facet normal -0.0315218 -0.999503 0
    outer loop
      vertex 15 -2.5 0
      vertex 17.283 -2.572 0
      vertex 17.283 -2.572 2
    endloop
  endfacet
  facet normal -0.0315218 -0.999503 0
    outer loop
      vertex 15 -2.5 2
      vertex 15 -2.5 0
      vertex 17.283 -2.572 2
    endloop
  endfacet
  facet normal -0.0938899 -0.995583 0
    outer loop
      vertex 17.283 -2.572 0
      vertex 19.5575 -2.7865 0
      vertex 19.5575 -2.7865 2
    endloop
  endfacet
  facet normal -0.0938899 -0.995583 0
    outer loop
      vertex 17.283 -2.572 2
      vertex 17.283 -2.572 0
      vertex 19.5575 -2.7865 2
    endloop
  endfacet
  facet normal -0.156513 -0.987676 0
    outer loop
      vertex 19.5575 -2.7865 0
      vertex 21.8135 -3.144 0
      vertex 21.8135 -3.144 2
    endloop
  endfacet
  facet normal -0.156513 -0.987676 0
    outer loop
      vertex 19.5575 -2.7865 2
      vertex 19.5575 -2.7865 0
      vertex 21.8135 -3.144 2
    endloop
  endfacet
  facet normal -0.218205 -0.975903 0
    outer loop
      vertex 21.8135 -3.144 0
      vertex 24.043 -3.6425 0
      vertex 24.043 -3.6425 2
    endloop
  endfacet
  facet normal -0.218205 -0.975903 0
    outer loop
      vertex 21.8135 -3.144 2
      vertex 21.8135 -3.144 0
      vertex 24.043 -3.6425 2
    endloop
  endfacet
  facet normal -0.278882 -0.960325 0
    outer loop
      vertex 24.043 -3.6425 0
      vertex 26.2365 -4.2795 0
      vertex 26.2365 -4.2795 2
    endloop
  endfacet
  facet normal -0.278882 -0.960325 0
    outer loop
      vertex 24.043 -3.6425 2
      vertex 24.043 -3.6425 0
      vertex 26.2365 -4.2795 2
    endloop
  endfacet
  facet normal -0.338778 -0.940866 0
    outer loop
      vertex 26.2365 -4.2795 0
      vertex 28.2375 -5 0
      vertex 28.2375 -5 2
    endloop
  endfacet
  facet normal -0.338778 -0.940866 0
    outer loop
      vertex 26.2365 -4.2795 2
      vertex 26.2365 -4.2795 0
      vertex 28.2375 -5 2
    endloop
  endfacet
  facet normal 0 -1 0
    outer loop
      vertex 28.2375 -5 0
      vertex 38.75 -5 0
      vertex 38.75 -5 2
    endloop
  endfacet
  facet normal 0 -1 0
    outer loop
      vertex 28.2375 -5 2
      vertex 28.2375 -5 0
      vertex 38.75 -5 2
    endloop
  endfacet
  facet normal 1 0 0
    outer loop
      vertex 38.75 -5 0
      vertex 38.75 5 0
      vertex 38.75 5 2
    endloop
  endfacet
  facet normal 1 0 0
    outer loop
      vertex 38.75 -5 2
      vertex 38.75 -5 0
      vertex 38.75 5 2
    endloop
  endfacet
  facet normal 0 1 0
    outer loop
      vertex 28.2375 5 2
      vertex 38.75 5 2
      vertex 28.2375 5 0
    endloop
  endfacet
  facet normal 0 1 0
    outer loop
      vertex 28.2375 5 0
      vertex 38.75 5 2
      vertex 38.75 5 0
    endloop
  endfacet
  facet normal -0.338778 0.940866 0
    outer loop
      vertex 26.2365 4.2795 2
      vertex 28.2375 5 2
      vertex 26.2365 4.2795 0
    endloop
  endfacet
  facet normal -0.338778 0.940866 0
    outer loop
      vertex 26.2365 4.2795 0
      vertex 28.2375 5 2
      vertex 28.2375 5 0
    endloop
  endfacet
  facet normal -0.278882 0.960325 0
    outer loop
      vertex 24.043 3.6425 2
      vertex 26.2365 4.2795 2
      vertex 24.043 3.6425 0
    endloop
  endfacet
  facet normal -0.278882 0.960325 0
    outer loop
      vertex 24.043 3.6425 0
      vertex 26.2365 4.2795 2
      vertex 26.2365 4.2795 0
    endloop
  endfacet
  facet normal -0.218205 0.975903 0
    outer loop
      vertex 21.8135 3.144 2
      vertex 24.043 3.6425 2
      vertex 21.8135 3.144 0
    endloop
  endfacet
  facet normal -0.218205 0.975903 0
    outer loop
      vertex 21.8135 3.144 0
      vertex 24.043 3.6425 2
      vertex 24.043 3.6425 0
    endloop
  endfacet
  facet normal -0.156513 0.987676 0
    outer loop
      vertex 19.5575 2.7865 2
      vertex 21.8135 3.144 2
      vertex 19.5575 2.7865 0
    endloop
  endfacet
  facet normal -0.156513 0.987676 0
    outer loop
      vertex 19.5575 2.7865 0
      vertex 21.8135 3.144 2
      vertex 21.8135 3.144 0
    endloop
  endfacet
  facet normal -0.0938899 0.995583 0
    outer loop
      vertex 17.283 2.572 2
      vertex 19.5575 2.7865 2
      vertex 17.283 2.572 0
    endloop
  endfacet
  facet normal -0.0938899 0.995583 0
    outer loop
      vertex 17.283 2.572 0
      vertex 19.5575 2.7865 2
      vertex 19.5575 2.7865 0
    endloop
  endfacet
  facet normal -0.0315218 0.999503 0
    outer loop
      vertex 15 2.5 2
      vertex 17.283 2.572 2
      vertex 15 2.5 0
    endloop
  endfacet
  facet normal -0.0315218 0.999503 0
    outer loop
      vertex 15 2.5 0
      vertex 17.283 2.572 2
      vertex 17.283 2.572 0
    endloop
  endfacet
  facet normal 0 1 0
    outer loop
      vertex -15 2.5 2
      vertex 15 2.5 2
      vertex -15 2.5 0
    endloop
  endfacet
  facet normal 0 1 0
    outer loop
      vertex -15 2.5 0
      vertex 15 2.5 2
      vertex 15 2.5 0
    endloop
  endfacet
  facet normal 0.0315218 0.999503 0
    outer loop
      vertex -17.283 2.572 2
      vertex -15 2.5 2
      vertex -17.283 2.572 0
    endloop
  endfacet
  facet normal 0.0315218 0.999503 0
    outer loop
      vertex -17.283 2.572 0
      vertex -15 2.5 2
      vertex -15 2.5 0
    endloop
  endfacet
  facet normal 0.0938899 0.995583 0
    outer loop
      vertex -19.5575 2.7865 2
      vertex -17.283 2.572 2
      vertex -19.5575 2.7865 0
    endloop
  endfacet
  facet normal 0.0938899 0.995583 0
    outer loop
      vertex -19.5575 2.7865 0
      vertex -17.283 2.572 2
      vertex -17.283 2.572 0
    endloop
  endfacet
  facet normal 0.156513 0.987676 0
    outer loop
      vertex -21.8135 3.144 2
      vertex -19.5575 2.7865 2
      vertex -21.8135 3.144 0
    endloop
  endfacet
  facet normal 0.156513 0.987676 0
    outer loop
      vertex -21.8135 3.144 0
      vertex -19.5575 2.7865 2
      vertex -19.5575 2.7865 0
    endloop
  endfacet
  facet normal 0.218205 0.975903 0
    outer loop
      vertex -24.043 3.6425 2
      vertex -21.8135 3.144 2
      vertex -24.043 3.6425 0
    endloop
  endfacet
  facet normal 0.218205 0.975903 0
    outer loop
      vertex -24.043 3.6425 0
      vertex -21.8135 3.144 2
      vertex -21.8135 3.144 0
    endloop
  endfacet
  facet normal 0.278882 0.960325 0
    outer loop
      vertex -26.2365 4.2795 2
      vertex -24.043 3.6425 2
      vertex -26.2365 4.2795 0
    endloop
  endfacet
  facet normal 0.278882 0.960325 0
    outer loop
      vertex -26.2365 4.2795 0
      vertex -24.043 3.6425 2
      vertex -24.043 3.6425 0
    endloop
  endfacet
  facet normal 0.338778 0.940866 0
    outer loop
      vertex -28.2375 5 2
      vertex -26.2365 4.2795 2
      vertex -28.2375 5 0
    endloop
  endfacet
  facet normal 0.338778 0.940866 0
    outer loop
      vertex -28.2375 5 0
      vertex -26.2365 4.2795 2
      vertex -26.2365 4.2795 0
    endloop
  endfacet
  facet normal 0 1 0
    outer loop
      vertex -38.75 5 2
      vertex -28.2375 5 2
      vertex -38.75 5 0
    endloop
  endfacet
  facet normal 0 1 0
    outer loop
      vertex -38.75 5 0
      vertex -28.2375 5 2
      vertex -28.2375 5 0
    endloop
  endfacet
endsolid OpenSCAD_Model
